<?xml version="1.0" standalone="no"?>
<!DOCTYPE svg PUBLIC "-//W3C//DTD SVG 1.1//EN" "http://www.w3.org/Graphics/SVG/1.1/DTD/svg11.dtd" >
<svg>
<metadata>
Created by FontForge 20090622 at Wed Jun 13 15:59:10 2018
 By deploy user
Copyright (C) 1998; Type Market Ltd. Russia, Moscow, 119136, Box 20; phone:(095)1427712
</metadata>
<defs>
<font id="SansRoundedC" horiz-adv-x="500" >
  <font-face 
    font-family="SansRoundedC"
    font-weight="400"
    font-stretch="normal"
    units-per-em="1000"
    panose-1="0 0 5 0 0 0 0 0 0 0"
    ascent="700"
    descent="-300"
    x-height="532"
    cap-height="711"
    bbox="-71 -300 1158 1015"
    underline-thickness="102"
    underline-position="-8"
    unicode-range="U+0020-U+2122"
  />
<missing-glyph 
 />
    <glyph glyph-name=".notdef" 
 />
    <glyph glyph-name=".null" horiz-adv-x="0" 
 />
    <glyph glyph-name="nonmarkingreturn" horiz-adv-x="333" 
 />
    <glyph glyph-name="space" unicode=" " horiz-adv-x="324" 
 />
    <glyph glyph-name="space" unicode="&#xa0;" horiz-adv-x="324" 
 />
    <glyph glyph-name="exclam" unicode="!" horiz-adv-x="290" 
d="M144 157q34 0 60 -25.5t26 -59.5q0 -36 -25.5 -60.5t-60.5 -24.5q-34 0 -59 23.5t-25 60.5q0 35 25 60.5t59 25.5zM144 731q77 0 77 -114v-288q0 -115 -77 -115q-78 0 -78 115v288q0 114 78 114z" />
    <glyph glyph-name="quotedbl" unicode="&#x22;" horiz-adv-x="331" 
d="M39 476v179q0 21 13.5 34t33.5 13q23 0 35 -12.5t12 -34.5v-179q0 -21 -13.5 -34t-33.5 -13q-23 0 -35 12.5t-12 34.5zM245 702q23 0 35 -12.5t12 -34.5v-179q0 -21 -13.5 -34t-33.5 -13q-23 0 -35 12.5t-12 34.5v179q0 21 13.5 34t33.5 13z" />
    <glyph glyph-name="numbersign" unicode="#" horiz-adv-x="769" 
d="M383 512h118l59 168q12 33 24 42t47 9q40 0 40 -29q0 -13 -9 -38l-53 -152h76q69 0 69 -49t-69 -49h-111l-41 -118h92q69 0 69 -49t-69 -49h-127l-54 -152q-12 -33 -24 -42t-47 -9q-40 0 -40 29q0 13 9 38l48 136h-119l-54 -152q-12 -33 -24 -42t-47 -9q-40 0 -40 29
q0 13 9 38l47 136h-74q-69 0 -69 49t69 49h109l42 118h-82q-69 0 -69 49t69 49h117l59 168q12 33 24 42t47 9q40 0 40 -29q0 -13 -9 -38zM346 414l-43 -118h123l42 118h-122z" />
    <glyph glyph-name="dollar" unicode="$" horiz-adv-x="551" 
d="M230 -19q-97 9 -151 41t-54 73q0 33 21.5 53t58.5 20q18 0 76 -18.5t98 -18.5q34 0 57 21t23 52q0 39 -29 59t-96 40q-107 32 -154 76.5t-47 125.5q0 83 53 145.5t144 80.5v45q0 54 40 54q23 0 31.5 -12.5t8.5 -41.5v-45q83 -7 129 -35.5t46 -70.5q0 -32 -19 -50.5
t-54 -18.5q-19 0 -62 12.5t-65 12.5q-37 0 -58.5 -17t-21.5 -44q0 -11 2.5 -19.5t9.5 -15t13.5 -11t20 -10t23 -8.5l29.5 -9.5l32 -10.5q100 -33 148 -85t48 -131q0 -93 -61 -160.5t-160 -78.5v-63q0 -55 -40 -55q-22 0 -31 13t-9 42v63z" />
    <glyph glyph-name="percent" unicode="%" horiz-adv-x="699" 
d="M163 720q63 0 108 -46.5t45 -112.5t-45 -112.5t-108 -46.5q-64 0 -108.5 46t-44.5 113t45 113t108 46zM163 618q-21 0 -36 -17t-15 -40q0 -22 15 -39.5t36 -17.5t36 17.5t15 39.5q0 23 -15 40t-36 17zM536 309q63 0 108 -46.5t45 -112.5t-45 -112.5t-108 -46.5
q-64 0 -108.5 46t-44.5 113t45 113t108 46zM536 207q-21 0 -36 -17t-15 -40q0 -22 15 -39.5t36 -17.5t36 17.5t15 39.5q0 23 -15 40t-36 17zM239 40q-33 -57 -70 -57q-24 0 -40.5 16.5t-16.5 41.5q0 24 16 52l330 576q33 56 70 56q24 0 40 -15.5t16 -40.5q0 -24 -16 -53z
" />
    <glyph glyph-name="ampersand" unicode="&#x26;" horiz-adv-x="721" 
d="M332 731q92 0 149 -50t57 -124q0 -109 -121 -182l97 -115q44 53 67.5 74.5t48.5 21.5t43 -19.5t18 -47.5q0 -27 -21.5 -56.5t-68.5 -73.5q24 -27 34.5 -40.5t19 -31.5t8.5 -34q0 -30 -18.5 -52t-46.5 -22q-44 0 -105 80q-88 -80 -225 -80q-104 0 -171 63t-67 157
q0 138 164 219q-68 73 -68 146q0 71 57 119t149 48zM410 163l-131 150q-87 -41 -87 -110q0 -41 26 -67.5t69 -26.5q61 0 123 54zM330 471q79 33 79 86q0 23 -21 42t-49 19q-27 0 -46 -17t-19 -41q0 -38 56 -89z" />
    <glyph glyph-name="quotesingle" unicode="'" horiz-adv-x="172" 
d="M86 702q23 0 35 -12.5t12 -34.5v-179q0 -21 -13.5 -34t-33.5 -13q-23 0 -35 12.5t-12 34.5v179q0 21 13.5 34t33.5 13z" />
    <glyph glyph-name="parenleft" unicode="(" horiz-adv-x="324" 
d="M202 769q29 0 45.5 -16t16.5 -46q0 -16 -18 -69t-36.5 -137t-18.5 -176q0 -91 18.5 -175t36.5 -137t18 -70q0 -30 -16.5 -46t-45.5 -16q-47 0 -82.5 89t-49.5 186.5t-14 168.5q0 82 15 180.5t50.5 181t80.5 82.5z" />
    <glyph glyph-name="parenright" unicode=")" horiz-adv-x="324" 
d="M122 769q45 0 80.5 -82.5t50.5 -181t15 -180.5q0 -71 -14 -168.5t-49.5 -186.5t-82.5 -89q-29 0 -45.5 16t-16.5 46q0 17 18 70t36.5 137t18.5 175q0 92 -18.5 176t-36.5 137t-18 69q0 30 16.5 46t45.5 16z" />
    <glyph glyph-name="asterisk" unicode="*" 
d="M211 473q-8 -6 -23 -19t-22.5 -18t-19 -10t-22.5 -5q-19 0 -32.5 15t-13.5 35q0 24 21 38t74 31q-53 18 -74 31.5t-21 37.5q0 20 13.5 35t32.5 15q11 0 23 -5t18.5 -9.5t22.5 -17.5l23 -19q-1 12 -5.5 35.5t-4.5 33.5q0 25 13.5 39.5t35.5 14.5q23 0 36.5 -14.5
t13.5 -38.5q0 -12 -5 -35.5t-6 -34.5q6 4 17 13.5t15.5 13t13 9.5t14 8.5t13 4.5t14.5 2q19 0 32.5 -15t13.5 -35q0 -25 -20.5 -38t-74.5 -31q37 -12 53 -19t29 -19.5t13 -30.5q0 -20 -13.5 -35t-32.5 -15q-9 0 -16.5 2t-17 8.5l-15 10.5t-19 15l-19.5 16q1 -11 6 -35t5 -35
q0 -25 -13.5 -39.5t-36.5 -14.5q-22 0 -35.5 14.5t-13.5 39.5q0 10 4.5 34t5.5 36z" />
    <glyph glyph-name="plus" unicode="+" horiz-adv-x="830" 
d="M466 371h199q30 0 50 -13t20 -38q0 -51 -71 -51h-198v-199q0 -30 -13 -50t-38 -20q-51 0 -51 71v198h-198q-30 0 -50.5 13t-20.5 38t20 38t51 13h198v198q0 30 13 50.5t38 20.5t38 -20t13 -51v-198z" />
    <glyph glyph-name="comma" unicode="," horiz-adv-x="252" 
d="M151 162q27 0 46.5 -17.5t19.5 -44.5q0 -21 -16 -51l-79 -144q-30 -55 -70 -55q-27 0 -46.5 18t-19.5 45q0 22 16 50l79 144q30 55 70 55z" />
    <glyph glyph-name="hyphen" unicode="-" horiz-adv-x="428" 
d="M113 346h203q37 0 57.5 -18.5t20.5 -50.5q0 -66 -79 -66h-203q-78 0 -78 67q0 32 20.5 50t58.5 18z" />
    <glyph glyph-name="hyphen" unicode="&#xad;" horiz-adv-x="428" 
d="M113 346h203q37 0 57.5 -18.5t20.5 -50.5q0 -66 -79 -66h-203q-78 0 -78 67q0 32 20.5 50t58.5 18z" />
    <glyph glyph-name="period" unicode="." horiz-adv-x="252" 
d="M137 175q37 0 64 -27t27 -64q0 -39 -27 -65t-64 -26t-64 25t-27 66q0 37 27 64t64 27z" />
    <glyph glyph-name="slash" unicode="/" horiz-adv-x="370" 
d="M350 733q27 0 46.5 -17.5t19.5 -44.5q0 -19 -15 -49l-310 -587q-31 -58 -70 -58q-27 0 -46.5 18t-19.5 45q0 21 14 48l311 587q31 58 70 58z" />
    <glyph glyph-name="zero" unicode="0" horiz-adv-x="651" 
d="M325 731q134 0 215.5 -100.5t81.5 -275.5t-81.5 -275.5t-215.5 -100.5t-215 100.5t-81 275.5t81 275.5t215 100.5zM326 581q-58 0 -93.5 -59.5t-35.5 -166.5q0 -108 35 -167t94 -59t93.5 59.5t34.5 167.5q0 107 -35 166t-93 59z" />
    <glyph glyph-name="one" unicode="1" horiz-adv-x="360" 
d="M103 711h81q50 0 70.5 -27t20.5 -88v-488q0 -115 -81 -115t-81 115v453h-16q-109 0 -109 75t115 75z" />
    <glyph glyph-name="two" unicode="2" horiz-adv-x="525" 
d="M259 731q102 0 165 -60t63 -151q0 -79 -57 -159t-189 -211h149q115 0 115 -75t-115 -75h-287q-97 0 -97 75q0 7 1.5 13.5t5.5 14.5t8.5 15t12.5 17.5l14.5 18.5t18 21l20 22l23.5 25.5l25 27.5q96 106 138 164.5t42 97.5q0 30 -17.5 49.5t-43.5 19.5q-28 0 -47.5 -24.5
t-29.5 -53.5t-30.5 -53.5t-48.5 -24.5q-35 0 -57.5 23t-22.5 60q0 85 69.5 154t171.5 69z" />
    <glyph glyph-name="three" unicode="3" horiz-adv-x="546" 
d="M257 731q92 0 152.5 -56.5t60.5 -137.5q0 -87 -81 -146q120 -62 120 -182q0 -97 -72.5 -163.5t-183.5 -66.5q-95 0 -171 63.5t-76 133.5q0 34 19.5 55.5t51.5 21.5q27 0 49 -19.5t35 -42.5t37.5 -42.5t56.5 -19.5q36 0 61 26t25 65q0 40 -24 57.5t-79 26.5
q-37 6 -52.5 22t-15.5 50q0 32 15.5 47.5t52.5 23.5q75 18 75 73q0 28 -16 44.5t-43 16.5q-24 0 -44.5 -13.5t-34 -30.5t-35 -30.5t-46.5 -13.5q-27 0 -47 19.5t-20 48.5q0 62 69.5 116t160.5 54z" />
    <glyph glyph-name="four" unicode="4" horiz-adv-x="630" 
d="M380 731q59 0 94 -42.5t35 -124.5v-262h25q42 0 66 -21t24 -53q0 -76 -99 -76h-16v-71q0 -42 -21 -65t-59 -23q-70 0 -70 94v65h-256q-100 0 -100 64q0 33 39 95l216 342q27 43 54.5 60.5t67.5 17.5zM189 302h170v273z" />
    <glyph glyph-name="five" unicode="5" horiz-adv-x="530" 
d="M190 711h197q104 0 104 -75t-98 -75h-167l-11 -86q38 9 69 9q91 0 152.5 -66.5t61.5 -169.5q0 -116 -75 -192.5t-194 -76.5q-93 0 -160 43t-67 98q0 31 19 51.5t48 20.5q21 0 70.5 -31.5t87.5 -31.5q41 0 70 32.5t29 78.5q0 47 -23.5 73t-64.5 26q-21 0 -60.5 -12.5
t-58.5 -12.5q-63 0 -63 70q0 11 5 56l23 185q6 53 29 69.5t77 16.5z" />
    <glyph glyph-name="six" unicode="6" horiz-adv-x="570" 
d="M284 454q30 6 57 6q84 0 144 -65.5t60 -163.5q0 -104 -76.5 -178t-190.5 -74q-109 0 -181 72t-72 185q0 151 169 361q56 70 93.5 102t66.5 32q31 0 54.5 -21.5t23.5 -51.5q0 -22 -19.5 -48t-59.5 -70t-69 -86zM193 228q0 -41 27 -70t65 -29t65 29t27 70t-27 69t-65 28
t-65 -28t-27 -69z" />
    <glyph glyph-name="seven" unicode="7" horiz-adv-x="480" 
d="M91 711h266q118 0 118 -89q0 -25 -16 -60l-235 -507q-36 -76 -85 -76q-36 0 -60 22.5t-24 56.5q0 25 22 71l210 432h-184q-57 0 -83 15.5t-26 57.5q0 77 97 77z" />
    <glyph glyph-name="eight" unicode="8" horiz-adv-x="570" 
d="M122 389q-65 57 -65 142t65 142.5t163 57.5t163.5 -57.5t65.5 -142.5q0 -84 -66 -142q95 -62 95 -178q0 -98 -72.5 -165t-185.5 -67t-185.5 67t-72.5 165q0 118 95 178zM189 226q0 -42 28.5 -72t67.5 -30t67.5 29.5t28.5 72.5t-28 73t-68 30q-39 0 -67.5 -30t-28.5 -73z
M212 516q0 -30 22 -52.5t51 -22.5q31 0 52.5 22t21.5 53q0 32 -21.5 54t-52.5 22q-30 0 -51.5 -22.5t-21.5 -53.5z" />
    <glyph glyph-name="nine" unicode="9" horiz-adv-x="570" 
d="M286 256q-30 -6 -57 -6q-84 0 -144 65.5t-60 163.5q0 104 76.5 178t190.5 74q109 0 181 -72t72 -185q0 -151 -169 -361q-56 -70 -93.5 -102t-66.5 -32q-31 0 -54.5 21.5t-23.5 51.5q0 22 19.5 48t59.5 70t69 86zM377 482q0 41 -27 70t-65 29t-65 -29t-27 -70t27 -69
t65 -28t65 28t27 69z" />
    <glyph glyph-name="colon" unicode=":" horiz-adv-x="252" 
d="M137 175q37 0 64 -27t27 -64q0 -39 -27 -65t-64 -26t-64 25t-27 66q0 37 27 64t64 27zM137 478q37 0 64 -27t27 -64q0 -39 -27 -65t-64 -26t-64 25t-27 66q0 37 27 64t64 27z" />
    <glyph glyph-name="semicolon" unicode=";" horiz-adv-x="252" 
d="M137 478q37 0 64 -27t27 -64q0 -39 -27 -65t-64 -26t-64 25t-27 66q0 37 27 64t64 27zM151 162q27 0 46.5 -17.5t19.5 -44.5q0 -21 -16 -51l-79 -144q-30 -55 -70 -55q-27 0 -46.5 18t-19.5 45q0 22 16 50l79 144q30 55 70 55z" />
    <glyph glyph-name="less" unicode="&#x3c;" horiz-adv-x="787" 
d="M70 297q0 37 31 50l541 222q27 10 36 10q15 0 27 -14t12 -33q0 -40 -41 -56l-437 -178l437 -178q41 -16 41 -58q0 -22 -12.5 -33t-26.5 -11q-13 0 -33 8l-544 224q-31 13 -31 47z" />
    <glyph glyph-name="equal" unicode="=" horiz-adv-x="810" 
d="M171 468h469q30 0 50 -13t20 -38q0 -51 -71 -51h-468q-30 0 -50.5 13t-20.5 38t20 38t51 13zM171 254h469q30 0 50 -13t20 -38q0 -51 -71 -51h-468q-30 0 -50.5 13t-20.5 38t20 38t51 13z" />
    <glyph glyph-name="greater" unicode="&#x3e;" horiz-adv-x="787" 
d="M717 297q0 -34 -31 -47l-544 -224q-20 -8 -33 -8q-14 0 -26.5 10t-12.5 31q0 44 41 61l437 178l-437 178q-41 17 -41 56q0 19 12 33t27 14q12 0 36 -10l541 -222q31 -13 31 -50z" />
    <glyph glyph-name="question" unicode="?" horiz-adv-x="509" 
d="M233 157q34 0 60 -25.5t26 -59.5q0 -36 -25.5 -60.5t-60.5 -24.5q-34 0 -59 23.5t-25 60.5q0 35 25 60.5t59 25.5zM243 728q105 0 172.5 -65t67.5 -158q0 -81 -47 -138t-128 -72q0 -48 -21 -73t-57 -25q-76 0 -76 88v63q0 39 14.5 52t62.5 24q82 19 82 88
q0 27 -20.5 46.5t-49.5 19.5q-32 0 -57 -16t-38.5 -35t-34 -35t-43.5 -16q-28 0 -46.5 20.5t-18.5 52.5q0 66 69 122.5t169 56.5z" />
    <glyph glyph-name="at" unicode="@" horiz-adv-x="1000" 
d="M594 342q-12 81 -85 81q-55 0 -96.5 -60.5t-41.5 -145.5q0 -92 77 -92q40 0 74 30t46 81zM570 133q-52 -80 -145 -80q-78 0 -118 42.5t-40 123.5q0 118 68.5 196.5t167.5 78.5q84 0 122 -66l8 24q8 24 19.5 33t33.5 9q16 0 26.5 -8.5t10.5 -20.5q0 -20 -9 -56l-51 -207
q-7 -26 -7 -36q0 -34 46 -34q70 0 117.5 80t47.5 163q0 116 -90 192t-235 76q-179 0 -293.5 -110.5t-114.5 -277.5q0 -150 101 -239.5t270 -89.5q165 0 295 93q21 16 44 16t23 -29q0 -10 -8.5 -23.5t-18.5 -20.5q-151 -113 -333 -113q-202 0 -332.5 109.5t-130.5 295.5
q0 135 67 243t181.5 167t252.5 59q178 0 295 -95t117 -255q0 -125 -80.5 -222.5t-201.5 -97.5q-105 0 -105 80z" />
    <glyph glyph-name="A" unicode="A" horiz-adv-x="637" 
d="M230 284h169l-81 263zM322 723q85 0 119 -94l180 -511q11 -31 11 -51q0 -34 -23 -55t-57 -21q-60 0 -85 79l-20 64h-263l-24 -70q-24 -73 -78 -73q-34 0 -55.5 22t-21.5 56q0 27 8 47l185 502q38 105 124 105z" />
    <glyph glyph-name="B" unicode="B" horiz-adv-x="616" 
d="M175 711h133q107 0 164.5 -47.5t57.5 -129.5q0 -102 -88 -140q70 -17 107 -63.5t37 -116.5q0 -99 -65.5 -156.5t-187.5 -57.5h-160q-64 0 -87 22t-23 80v495q0 62 23.5 88t88.5 26zM225 299v-161h80q54 0 82.5 21t28.5 60q0 80 -113 80h-78zM225 573v-139h68
q36 0 58 19.5t22 49.5q0 32 -22 51t-60 19h-66z" />
    <glyph glyph-name="C" unicode="C" horiz-adv-x="630" 
d="M381 732q92 0 152 -32t60 -76q0 -29 -21 -52.5t-49 -23.5q-16 0 -63 14.5t-79 14.5q-78 0 -126.5 -62t-48.5 -164q0 -99 49 -158t131 -59q38 0 87 19.5t64 19.5q25 0 45 -21.5t20 -49.5q0 -49 -63.5 -86t-160.5 -37q-156 0 -252 102.5t-96 273.5q0 168 100.5 272.5
t250.5 104.5z" />
    <glyph glyph-name="D" unicode="D" horiz-adv-x="698" 
d="M175 711h146q152 0 249.5 -95.5t97.5 -252.5q0 -167 -92.5 -265t-254.5 -98h-148q-64 0 -87 22t-23 80v495q0 62 23.5 88t88.5 26zM225 561v-411h74q193 0 193 214q0 197 -196 197h-71z" />
    <glyph glyph-name="E" unicode="E" horiz-adv-x="505" 
d="M225 561v-128h114q115 0 115 -75t-115 -75h-114v-133h137q115 0 115 -75t-115 -75h-189q-64 0 -87 22t-23 80v495q0 62 23.5 88t88.5 26h182q115 0 115 -76q0 -74 -115 -74h-132z" />
    <glyph glyph-name="F" unicode="F" horiz-adv-x="490" 
d="M225 561v-128h114q115 0 115 -75t-115 -75h-114v-177q0 -115 -81 -115t-81 115v491q0 62 23.5 88t88.5 26h182q115 0 115 -76q0 -74 -115 -74h-132z" />
    <glyph glyph-name="G" unicode="G" horiz-adv-x="729" 
d="M389 732q113 0 187.5 -46t74.5 -102q0 -30 -20.5 -53t-48.5 -23q-19 0 -48 17t-68.5 34.5t-81.5 17.5q-82 0 -130 -58t-48 -160q0 -104 48.5 -164.5t128.5 -60.5q64 0 104 39.5t40 103.5h-57q-114 0 -114 75t114 75h119q60 0 87 -24t27 -82q0 -150 -91.5 -246t-241.5 -96
q-149 0 -244.5 104.5t-95.5 272.5q0 173 97.5 274.5t261.5 101.5z" />
    <glyph glyph-name="H" unicode="H" horiz-adv-x="748" 
d="M225 437h298v171q0 115 81 115t81 -115v-502q0 -115 -81 -115t-81 115v181h-298v-181q0 -115 -81 -115t-81 115v502q0 115 81 115t81 -115v-171z" />
    <glyph glyph-name="I" unicode="I" horiz-adv-x="296" 
d="M148 723q81 0 81 -115v-502q0 -115 -81 -115t-81 115v502q0 115 81 115z" />
    <glyph glyph-name="J" unicode="J" horiz-adv-x="458" 
d="M314 723q81 0 81 -115v-391q0 -117 -53 -177.5t-155 -60.5q-81 0 -133 35.5t-52 83.5q0 32 20.5 52.5t54.5 20.5q21 0 54 -18.5t49 -18.5q31 0 42 32.5t11 102.5v339q0 115 81 115z" />
    <glyph glyph-name="K" unicode="K" horiz-adv-x="635" 
d="M144 723q81 0 81 -115v-179l210 238q50 56 84 56q29 0 51 -22t22 -52q0 -37 -41 -80l-179 -187l217 -236q41 -46 41 -80q0 -31 -23 -53t-52 -22q-17 0 -32.5 8.5t-25.5 18t-29 30.5l-243 268v-210q0 -115 -81 -115t-81 115v502q0 115 81 115z" />
    <glyph glyph-name="L" unicode="L" horiz-adv-x="477" 
d="M144 723q81 0 81 -115v-458h137q115 0 115 -75t-115 -75h-189q-64 0 -87 22t-23 80v506q0 115 81 115z" />
    <glyph glyph-name="M" unicode="M" horiz-adv-x="869" 
d="M221 723q89 0 113 -99l108 -425l101 426q24 98 111 98q52 0 78 -29t36 -91l79 -489q4 -23 4 -39q0 -39 -22.5 -61.5t-59.5 -22.5q-70 0 -80 94l-50 425h-1l-110 -438q-10 -39 -29 -60t-61 -21q-40 0 -62 18t-33 63l-104 438h-1l-56 -415q-8 -54 -28 -79t-57 -25
q-35 0 -57 22.5t-22 61.5q0 17 6 49l87 485q10 59 35 86.5t75 27.5z" />
    <glyph glyph-name="N" unicode="N" horiz-adv-x="748" 
d="M138 723q43 0 86 -56l299 -395v336q0 115 81 115t81 -115v-520q0 -50 -17.5 -73.5t-56.5 -23.5q-52 0 -112 80l-274 362v-327q0 -115 -81 -115t-81 115v505q0 112 75 112z" />
    <glyph glyph-name="O" unicode="O" horiz-adv-x="758" 
d="M379 732q156 0 252.5 -103.5t96.5 -273.5q0 -168 -96 -272t-253 -104t-253 103.5t-96 272.5t96.5 273t252.5 104zM379 577q-78 0 -125.5 -60t-47.5 -164q0 -100 48 -159.5t125 -59.5t125 59.5t48 159.5q0 104 -47.5 164t-125.5 60z" />
    <glyph glyph-name="P" unicode="P" horiz-adv-x="612" 
d="M225 562v-187h70q111 0 111 94q0 93 -111 93h-70zM175 711h146q121 0 191 -65.5t70 -176.5q0 -112 -65.5 -176.5t-182.5 -64.5h-109v-122q0 -115 -81 -115t-81 115v491q0 62 23.5 88t88.5 26z" />
    <glyph glyph-name="Q" unicode="Q" horiz-adv-x="758" 
d="M555 23q-71 -44 -176 -44q-157 0 -253 103.5t-96 272.5t96.5 273t252.5 104q155 0 252 -103.5t97 -272.5q0 -131 -64 -230l50 -46q35 -32 35 -70q0 -28 -20.5 -49t-48.5 -21q-35 0 -71 33zM433 144q-45 39 -45 74q0 28 18 47t44 19q32 0 81 -47q21 57 21 116
q0 104 -47.5 164t-125.5 60t-125.5 -60t-47.5 -164q0 -101 48 -160t127 -59q26 0 52 10z" />
    <glyph glyph-name="R" unicode="R" horiz-adv-x="608" 
d="M225 561v-172h75q49 0 76 23t27 65q0 40 -26 62t-75 22h-77zM175 711h126q129 0 200 -60.5t71 -161.5q0 -76 -45 -127.5t-125 -64.5l128 -142q48 -54 48 -93q0 -31 -21.5 -51t-55.5 -20q-44 0 -87 53l-189 237v-175q0 -115 -81 -115t-81 115v491q0 62 23.5 88t88.5 26z
" />
    <glyph glyph-name="S" unicode="S" horiz-adv-x="566" 
d="M296 732q86 0 140 -31.5t54 -75.5q0 -32 -19 -50.5t-54 -18.5q-19 0 -62 13t-65 13q-37 0 -58 -17.5t-21 -44.5q0 -11 2.5 -19.5t9.5 -15t13 -11t19.5 -10t23 -8.5l29.5 -9.5l32 -10.5q100 -33 148 -85t48 -131q0 -105 -75.5 -173t-200.5 -68q-97 0 -163.5 35.5
t-66.5 80.5q0 33 21.5 53t58.5 20q18 0 75.5 -19.5t97.5 -19.5q34 0 57 22t23 54q0 39 -28.5 58.5t-95.5 39.5q-107 32 -154 76.5t-47 125.5q0 98 71 162.5t187 64.5z" />
    <glyph glyph-name="T" unicode="T" horiz-adv-x="512" 
d="M115 711h282q115 0 115 -76q0 -74 -115 -74h-60v-455q0 -115 -81 -115t-81 115v455h-60q-115 0 -115 74q0 76 115 76z" />
    <glyph glyph-name="U" unicode="U" horiz-adv-x="736" 
d="M144 723q81 0 81 -115v-285q0 -189 143 -189t143 189v285q0 115 81 115t81 -115v-303q0 -157 -81.5 -241.5t-223.5 -84.5t-223.5 84.5t-81.5 241.5v303q0 115 81 115z" />
    <glyph glyph-name="V" unicode="V" horiz-adv-x="616" 
d="M89 723q27 0 43.5 -16.5t30.5 -53.5l150 -404l139 398q14 41 31.5 58.5t48.5 17.5q37 0 58 -20t21 -55q0 -28 -11 -56l-210 -534q-14 -36 -33 -51.5t-49 -15.5q-29 0 -46.5 14t-30.5 47l-217 544q-9 23 -9 46q0 35 24 58t60 23z" />
    <glyph glyph-name="W" unicode="W" horiz-adv-x="914" 
d="M87 723q31 0 51.5 -20t26.5 -53l85 -452l118 454q19 71 90 71q69 0 88 -73l116 -452l85 441q8 43 27.5 63.5t54.5 20.5q36 0 58 -22.5t22 -55.5q0 -24 -10 -64l-120 -483q-15 -59 -37 -83t-75 -24q-85 0 -108 91l-106 406l-100 -397q-25 -100 -117 -100q-47 0 -72.5 25
t-38.5 82l-114 497q-6 30 -6 53q0 34 23 54.5t59 20.5z" />
    <glyph glyph-name="X" unicode="X" horiz-adv-x="607" 
d="M122 723q36 0 83 -65l100 -140l102 142q45 63 86 63q27 0 49 -22.5t22 -49.5q0 -31 -36 -82l-131 -182l173 -244q37 -53 37 -82q0 -27 -22 -48.5t-52 -21.5q-45 0 -88 61l-144 202l-143 -201q-43 -62 -85 -62q-29 0 -51 22t-22 49q0 31 36 82l173 241l-130 182
q-36 50 -36 80q0 31 22.5 53.5t56.5 22.5z" />
    <glyph glyph-name="Y" unicode="Y" horiz-adv-x="563" 
d="M77 723q38 0 84 -65l121 -173l123 175q44 63 87 63q27 0 49 -22.5t22 -49.5q0 -30 -37 -82l-164 -234v-229q0 -115 -81 -115t-81 115v229l-164 232q-36 50 -36 82q0 28 22 51t55 23z" />
    <glyph glyph-name="Z" unicode="Z" horiz-adv-x="546" 
d="M126 711h275q71 0 105 -19t34 -60q0 -36 -47 -99l-283 -383h221q115 0 115 -75t-115 -75h-317q-114 0 -114 81q0 39 45 98l288 382h-207q-115 0 -115 76q0 74 115 74z" />
    <glyph glyph-name="bracketleft" unicode="[" horiz-adv-x="324" 
d="M194 645v-686h48q37 0 57 -14.5t20 -39.5q0 -53 -78 -53h-72q-64 0 -87.5 22t-23.5 80v684q0 62 23.5 88t88.5 26h72q77 0 77 -53q0 -54 -78 -54h-47z" />
    <glyph glyph-name="backslash" unicode="\" horiz-adv-x="370" 
d="M21 733q39 0 70 -58l310 -587q15 -28 15 -48q0 -27 -20 -45t-47 -18q-39 0 -70 58l-310 587q-14 27 -14 49q0 27 19.5 44.5t46.5 17.5z" />
    <glyph glyph-name="bracketright" unicode="]" horiz-adv-x="324" 
d="M130 -41v686h-47q-78 0 -78 54q0 53 77 53h72q65 0 88.5 -26t23.5 -88v-684q0 -58 -23 -80t-87 -22h-73q-78 0 -78 53q0 25 20 39.5t57 14.5h48z" />
    <glyph glyph-name="asciicircum" unicode="^" horiz-adv-x="700" 
d="M350 731q22 0 48.5 -13t37.5 -32l190 -316q20 -36 20 -67q0 -23 -15.5 -39t-39.5 -16q-55 0 -95 70l-146 260l-146 -260q-40 -70 -95 -70q-24 0 -39.5 16t-15.5 39q0 31 20 67l189 315q12 20 38.5 33t48.5 13z" />
    <glyph glyph-name="underscore" unicode="_" 
d="M0 -136h500q30 0 50 -13t20 -38q0 -51 -71 -51h-499q-30 0 -50.5 13t-20.5 38t20 38t51 13z" />
    <glyph glyph-name="grave" unicode="`" 
d="M181 808q34 0 57 -32l73 -100q17 -23 17 -44q0 -25 -15 -40t-39 -15q-27 0 -54 31l-76 84q-26 29 -26 54q0 27 18 44.5t45 17.5z" />
    <glyph glyph-name="a" unicode="a" horiz-adv-x="603" 
d="M289 402q-43 0 -72.5 -38t-29.5 -96q0 -60 29 -98.5t73 -38.5t73.5 39.5t29.5 97.5q0 57 -30 95.5t-73 38.5zM396 48q-50 -61 -132 -61q-99 0 -169 79t-70 200q0 119 71.5 199.5t173.5 80.5q78 0 126 -57q28 50 75 50q78 0 78 -114v-317q0 -115 -78 -115q-50 0 -75 55z
" />
    <glyph glyph-name="b" unicode="b" horiz-adv-x="603" 
d="M211 503q49 43 125 43q101 0 171.5 -79t70.5 -201q0 -115 -72 -197t-170 -82q-78 0 -128 57q-29 -51 -75 -51q-79 0 -79 115v540q0 115 79 115q78 0 78 -115v-145zM313 402q-45 0 -73.5 -37.5t-28.5 -99.5q0 -61 28.5 -97.5t73.5 -36.5q44 0 73.5 38.5t29.5 98.5
q0 61 -29 97.5t-74 36.5z" />
    <glyph glyph-name="c" unicode="c" horiz-adv-x="497" 
d="M296 546q79 0 127.5 -28t48.5 -73q0 -29 -18.5 -48t-46.5 -19q-13 0 -50 12t-61 12q-48 0 -78.5 -38t-30.5 -99q0 -62 30.5 -98t84.5 -36q26 0 62 12t46 12q27 0 44 -20t17 -48q0 -42 -52 -71t-133 -29q-116 0 -188.5 77t-72.5 202q0 124 74.5 202t196.5 78z" />
    <glyph glyph-name="d" unicode="d" horiz-adv-x="603" 
d="M396 44q-52 -57 -128 -57q-98 0 -170.5 82.5t-72.5 201.5q0 118 71 196.5t172 78.5q75 0 124 -42v144q0 115 79 115q78 0 78 -115v-540q0 -115 -78 -115q-47 0 -75 51zM291 402q-45 0 -74.5 -37t-29.5 -97t29.5 -98.5t74.5 -38.5q44 0 72.5 38t28.5 99t-28 97.5t-73 36.5
z" />
    <glyph glyph-name="e" unicode="e" horiz-adv-x="572" 
d="M187 223q5 -45 37 -71.5t82 -26.5q45 0 99 25.5t67 25.5q28 0 45.5 -17t17.5 -44q0 -49 -69 -88.5t-168 -39.5q-117 0 -195 79.5t-78 199.5t76 200t189 80q111 0 184 -75.5t73 -183.5q0 -39 -17.5 -51.5t-60.5 -12.5h-282zM186 325h208q-3 41 -33 67t-70 26t-68.5 -25
t-36.5 -68z" />
    <glyph glyph-name="f" unicode="f" horiz-adv-x="370" 
d="M266 763q48 0 76 -21.5t28 -57.5q0 -31 -17.5 -45t-54.5 -20q-25 -4 -31.5 -14.5t-6.5 -44.5v-38h26q47 0 73.5 -17.5t26.5 -49.5q0 -68 -100 -68h-26v-279q0 -115 -78 -115q-79 0 -79 115v279h-6q-42 0 -65.5 18.5t-23.5 49.5q0 67 95 67v30q0 103 42.5 157t120.5 54z
" />
    <glyph glyph-name="g" unicode="g" horiz-adv-x="599" 
d="M290 402q-44 0 -73.5 -38.5t-29.5 -97.5q0 -60 29 -94.5t74 -34.5t75 35.5t30 93.5q0 59 -30.5 97.5t-74.5 38.5zM396 489q27 50 70 50q79 0 79 -114v-317q0 -168 -62.5 -253t-214.5 -85q-104 0 -167.5 34.5t-63.5 82.5q0 30 19.5 49.5t48.5 19.5q14 0 68 -21t101 -21
q58 0 89.5 34.5t31.5 98.5v19q-51 -73 -142 -73q-95 0 -161.5 77.5t-66.5 195.5q0 119 71.5 199.5t172.5 80.5q79 0 127 -57z" />
    <glyph glyph-name="h" unicode="h" horiz-adv-x="592" 
d="M211 493h1q43 46 134 46q93 0 142.5 -51t49.5 -153v-226q0 -116 -78 -116q-79 0 -79 115v178q0 64 -18.5 91t-65.5 27q-45 0 -65.5 -28t-20.5 -87v-180q0 -116 -78 -116q-79 0 -79 115v540q0 115 79 115q78 0 78 -115v-155z" />
    <glyph glyph-name="i" unicode="i" horiz-adv-x="275" 
d="M138 539q78 0 78 -114v-317q0 -115 -78 -115q-79 0 -79 115v317q0 114 79 114zM138 764q38 0 64 -26t26 -64t-26 -64.5t-64 -26.5t-64.5 26.5t-26.5 64.5q0 37 26.5 63.5t64.5 26.5z" />
    <glyph glyph-name="j" unicode="j" horiz-adv-x="275" 
d="M138 539q78 0 78 -114v-530q0 -115 -78 -115q-79 0 -79 115v530q0 114 79 114zM47 674q0 37 26.5 63.5t64.5 26.5t64 -26t26 -64t-26 -64.5t-64 -26.5t-64.5 26.5t-26.5 64.5z" />
    <glyph glyph-name="k" unicode="k" horiz-adv-x="525" 
d="M133 763q78 0 78 -115v-290l135 139q41 42 81 42q28 0 47 -17.5t19 -42.5q0 -39 -40 -76l-106 -98l147 -173q31 -37 31 -76q0 -27 -21 -45t-53 -18q-46 0 -82 47l-158 210v-142q0 -115 -78 -115q-79 0 -79 115v540q0 115 79 115z" />
    <glyph glyph-name="l" unicode="l" horiz-adv-x="275" 
d="M138 763q78 0 78 -114v-541q0 -115 -78 -115q-79 0 -79 115v541q0 114 79 114z" />
    <glyph glyph-name="m" unicode="m" horiz-adv-x="883" 
d="M134 539q47 0 75 -50q46 50 126 50q103 0 157 -72q65 72 159 72q83 0 130.5 -52.5t47.5 -152.5v-226q0 -115 -79 -115q-78 0 -78 115v178q0 61 -17 89.5t-55 28.5q-42 0 -61 -28t-19 -88v-180q0 -115 -79 -115q-78 0 -78 115v178q0 61 -17 89.5t-55 28.5q-42 0 -61 -28
t-19 -88v-180q0 -115 -79 -115q-78 0 -78 115v317q0 114 80 114z" />
    <glyph glyph-name="n" unicode="n" horiz-adv-x="592" 
d="M133 539q47 0 75 -50q46 50 138 50q93 0 142.5 -51t49.5 -153v-226q0 -116 -78 -116q-79 0 -79 115v178q0 64 -18.5 91t-65.5 27q-45 0 -65.5 -28t-20.5 -87v-180q0 -116 -78 -116q-79 0 -79 115v317q0 114 79 114z" />
    <glyph glyph-name="o" unicode="o" horiz-adv-x="583" 
d="M292 546q117 0 191.5 -78.5t74.5 -201.5t-74.5 -201t-191.5 -78t-192 78t-75 201t75.5 201.5t191.5 78.5zM292 402q-45 0 -75 -37.5t-30 -97.5q0 -61 29.5 -98.5t75.5 -37.5q45 0 74.5 38t29.5 99q0 59 -30 96.5t-74 37.5z" />
    <glyph glyph-name="p" unicode="p" horiz-adv-x="603" 
d="M208 493q48 53 130 53q101 0 170.5 -78t69.5 -198q0 -118 -71 -200.5t-171 -82.5q-70 0 -125 47v-135q0 -115 -78 -115q-79 0 -79 115v530q0 57 19 83.5t60 26.5q49 0 75 -46zM313 402q-44 0 -73 -37t-29 -98q0 -62 28.5 -99t73.5 -37t74 38t29 99q0 59 -29.5 96.5
t-73.5 37.5z" />
    <glyph glyph-name="q" unicode="q" horiz-adv-x="603" 
d="M396 493q26 46 75 46q41 0 59.5 -26t18.5 -84v-530q0 -115 -78 -115q-79 0 -79 115v134q-53 -46 -125 -46q-100 0 -171 82.5t-71 200.5q0 120 69.5 198t170.5 78q83 0 131 -53zM291 402q-45 0 -74.5 -37.5t-29.5 -96.5q0 -61 29 -99t74 -38t73.5 37.5t28.5 99.5
q0 61 -28.5 97.5t-72.5 36.5z" />
    <glyph glyph-name="r" unicode="r" horiz-adv-x="395" 
d="M208 489q54 57 107 57q32 0 56 -25t24 -57q0 -18 -7 -31t-22 -22t-29.5 -15t-37.5 -14.5t-38 -15.5q-32 -15 -41 -33.5t-9 -60.5v-164q0 -115 -78 -115q-79 0 -79 115v317q0 114 79 114q47 0 75 -50z" />
    <glyph glyph-name="s" unicode="s" horiz-adv-x="456" 
d="M236 546q80 0 133 -32t53 -75q0 -28 -19 -47t-46 -19q-18 0 -61.5 19t-65.5 19q-17 0 -26.5 -7.5t-9.5 -19.5q0 -9 4.5 -15.5t15.5 -12.5t21 -10.5t31 -12.5t36 -15q67 -30 98 -65t31 -88q0 -76 -59 -127t-152 -51q-87 0 -141 31.5t-54 80.5q0 30 17.5 49.5t42.5 19.5
q29 0 74 -23t73 -23q19 0 31.5 11.5t12.5 25.5q0 26 -87 58q-150 55 -150 161q0 72 55 120t142 48z" />
    <glyph glyph-name="t" unicode="t" horiz-adv-x="383" 
d="M179 709q78 0 78 -114v-73h21q47 0 73.5 -17.5t26.5 -49.5q0 -68 -100 -68h-21v-279q0 -115 -78 -115q-79 0 -79 115v279h-6q-42 0 -65.5 18.5t-23.5 49.5q0 67 95 67v73q0 114 79 114z" />
    <glyph glyph-name="u" unicode="u" horiz-adv-x="584" 
d="M133 539q78 0 78 -114v-178q0 -59 17.5 -87.5t63.5 -28.5t63.5 28.5t17.5 87.5v178q0 114 79 114q78 0 78 -114v-210q0 -112 -61 -170t-177 -58t-177 58t-61 170v210q0 114 79 114z" />
    <glyph glyph-name="v" unicode="v" horiz-adv-x="476" 
d="M76 539q56 0 81 -77l86 -274l85 284q20 67 74 67q33 0 53.5 -22t20.5 -57q0 -20 -12 -52l-133 -344q-15 -41 -34.5 -59t-55.5 -18q-38 0 -58 19t-37 63l-132 337q-14 37 -14 55q0 33 22 55.5t54 22.5z" />
    <glyph glyph-name="w" unicode="w" horiz-adv-x="763" 
d="M76 539q59 0 81 -77l83 -288l67 289q8 35 27.5 55.5t45.5 20.5q60 0 80 -78l72 -283l83 294q19 67 74 67q33 0 53.5 -22t20.5 -57q0 -18 -12 -52l-121 -344q-15 -41 -35.5 -59t-54.5 -18q-73 0 -95 82l-65 251l-61 -256q-8 -35 -32 -56t-58 -21q-37 0 -58 19t-37 63
l-125 349q-9 26 -9 43q0 33 22 55.5t54 22.5z" />
    <glyph glyph-name="x" unicode="x" horiz-adv-x="513" 
d="M98 539q36 0 65 -33l96 -111l88 108q30 36 64 36q33 0 57 -23t24 -54q0 -30 -35 -68l-104 -111l123 -139q37 -41 37 -78q0 -30 -21 -51.5t-51 -21.5q-37 0 -72 41l-113 134l-112 -134q-35 -41 -68 -41q-30 0 -53 22.5t-23 55.5t33 69l131 144l-110 112q-30 32 -30 64
q0 31 22 55t52 24z" />
    <glyph glyph-name="y" unicode="y" 
d="M82 539q31 0 48 -18t32 -58l89 -238l97 251q25 63 69 63q36 0 57 -20t21 -55q0 -25 -13 -55l-240 -570q-14 -33 -29 -48.5t-40 -15.5q-36 0 -57 20.5t-21 55.5q0 25 13 54l65 141l-159 371q-9 19 -9 44q0 33 22.5 55.5t54.5 22.5z" />
    <glyph glyph-name="z" unicode="z" horiz-adv-x="480" 
d="M376 144q47 0 73 -19t26 -53q0 -72 -100 -72h-287q-44 0 -63.5 10t-19.5 39t24 60l216 279h-136q-47 0 -73 20t-26 53q0 71 100 71h253q54 0 76.5 -9t22.5 -39q0 -26 -32 -69l-210 -271h156z" />
    <glyph glyph-name="braceleft" unicode="{" 
d="M223 260q60 -14 80.5 -45.5t20.5 -100.5v-118q0 -57 16 -76.5t68 -19.5q71 0 71 -51q0 -25 -20 -38t-50 -13q-118 0 -160.5 33t-42.5 133v123q0 47 -10.5 71.5t-37.5 39.5q-8 5 -32.5 13t-36.5 18.5t-12 30.5t12 30.5t36.5 18.5t32.5 13q27 15 37.5 39.5t10.5 71.5v123
q0 100 42.5 133t160.5 33q30 0 50 -13t20 -38q0 -51 -71 -51q-52 0 -68 -19.5t-16 -76.5v-118q0 -69 -20.5 -100.5t-80.5 -45.5z" />
    <glyph glyph-name="bar" unicode="|" horiz-adv-x="274" 
d="M137 764q23 0 35 -12.5t12 -34.5v-906q0 -21 -13.5 -34t-33.5 -13q-23 0 -35 12.5t-12 34.5v906q0 21 13.5 34t33.5 13z" />
    <glyph glyph-name="braceright" unicode="}" 
d="M278 260q-60 14 -80.5 45.5t-20.5 100.5v118q0 57 -16 76.5t-68 19.5q-71 0 -71 51q0 25 20 38t50 13q118 0 160.5 -33t42.5 -133v-123q0 -47 10.5 -71.5t37.5 -39.5q8 -5 32.5 -13t36.5 -18.5t12 -30.5t-12 -30.5t-36.5 -18.5t-32.5 -13q-27 -15 -37.5 -39.5
t-10.5 -71.5v-123q0 -100 -42.5 -133t-160.5 -33q-30 0 -50 13t-20 38q0 51 71 51q52 0 68 19.5t16 76.5v118q0 69 20.5 100.5t80.5 45.5z" />
    <glyph glyph-name="asciitilde" unicode="~" horiz-adv-x="833" 
d="M106 212q-16 0 -26.5 16.5t-10.5 40.5q0 36 71.5 75t136.5 39q67 0 153 -33t133 -33q36 0 73 17.5t62.5 35t33.5 17.5q16 0 26.5 -16.5t10.5 -40.5q0 -36 -71 -75.5t-136 -39.5q-48 0 -140 33t-147 33q-36 0 -73 -17.5t-62.5 -34.5t-33.5 -17z" />
    <glyph glyph-name="currency" unicode="&#xa4;" horiz-adv-x="606" 
d="M309 592q-69 0 -116 -47t-47 -119q0 -69 45 -119t118 -50q66 0 112.5 49.5t46.5 119.5q0 72 -46 119t-113 47zM94 673q12 0 23 -12l39 -41q56 53 153 53q96 0 148 -53l45 45q7 8 19 8t23 -12t11 -25q0 -12 -10 -22l-39 -39q49 -55 49 -151q0 -90 -49 -148l39 -39
q10 -9 10 -25q0 -13 -11.5 -24.5t-24.5 -11.5q-9 0 -29 20l-33 35q-57 -55 -150 -55q-91 0 -149 55l-45 -43q-12 -12 -21 -12q-11 0 -22 12.5t-11 25.5q0 12 11 23l37 39q-48 61 -48 147q0 93 48 152l-37 39q-11 13 -11 23q0 14 10.5 25t24.5 11z" />
    <glyph glyph-name="section" unicode="&#xa7;" horiz-adv-x="541" 
d="M106 441q-49 48 -49 112q0 78 56 128.5t148 50.5q98 0 157.5 -45.5t59.5 -106.5q0 -30 -18.5 -49t-45.5 -19q-21 0 -34 11.5t-28 38.5q-30 53 -87 53q-30 0 -48.5 -14.5t-18.5 -35.5q0 -6 1.5 -12t5.5 -11.5t8.5 -10t13 -10l15 -9.5t19 -10.5t21.5 -10.5l26 -12t28 -14
q101 -49 145.5 -92t44.5 -112q0 -46 -23.5 -86.5t-66.5 -65.5q48 -48 48 -115q0 -77 -57.5 -126t-153.5 -49t-158.5 45t-62.5 106q0 29 20 48.5t47 19.5q21 0 34.5 -11.5t28.5 -38.5q30 -52 91 -52q33 0 51.5 14t18.5 36q0 6 -1.5 12t-5.5 11.5t-8 10t-12.5 9.5l-15 9
t-19 10.5l-21.5 11t-25.5 12t-28.5 13.5q-101 49 -146 92t-45 113q0 46 24.5 87t66.5 64zM346 175q43 23 43 68q0 28 -42 56.5t-152 76.5q-43 -27 -43 -68q0 -30 41.5 -56.5t152.5 -76.5z" />
    <glyph glyph-name="guillemotleft" unicode="&#xab;" horiz-adv-x="509" 
d="M212 455q21 0 32.5 -10t11.5 -26q0 -24 -33 -63l-83 -99l83 -99q33 -39 33 -63q0 -16 -11.5 -26t-32.5 -10q-34 0 -71 46l-126 152l126 152q37 46 71 46zM445 455q21 0 32.5 -10t11.5 -26q0 -24 -33 -63l-83 -99l83 -99q33 -39 33 -63q0 -16 -11.5 -26t-32.5 -10
q-34 0 -71 46l-126 152l126 152q37 46 71 46z" />
    <glyph glyph-name="logicalnot" unicode="&#xac;" horiz-adv-x="468" 
d="M95 329h283q30 0 50 -13t20 -38v-151q0 -30 -13 -50t-38 -20q-51 0 -51 71v99h-251q-30 0 -50.5 13t-20.5 38t20 38t51 13z" />
    <glyph glyph-name="registered" unicode="&#xae;" horiz-adv-x="833" 
d="M416 722q154 0 261 -109q103 -105 103 -255q0 -153 -107 -257q-109 -106 -257 -106q-150 0 -258 110q-104 106 -104 253q0 99 53 189q49 83 130 129t179 46zM417 662q-125 0 -211 -86q-92 -92 -92 -217t87 -212q90 -92 215 -92q121 0 215 89q89 86 89 209q0 130 -86 218
q-89 91 -217 91zM266 567h158q172 0 172 -116q0 -40 -23.5 -68t-64.5 -39l90 -180h-109l-77 165h-48v-165h-98v403zM364 505v-117h48q83 0 83 57q0 60 -88 60h-43z" />
    <glyph glyph-name="degree" unicode="&#xb0;" horiz-adv-x="366" 
d="M183 652q-37 0 -61 -25t-24 -60q0 -36 25 -61t60 -25t60 25.5t25 60.5q0 34 -24.5 59.5t-60.5 25.5zM183 715q63 0 105.5 -44.5t42.5 -104.5q0 -61 -43.5 -104.5t-105.5 -43.5t-104.5 43t-42.5 105q0 60 42.5 104.5t105.5 44.5z" />
    <glyph glyph-name="plusminus" unicode="&#xb1;" horiz-adv-x="830" 
d="M166 102h499q30 0 50 -13t20 -38q0 -51 -71 -51h-498q-30 0 -50.5 13t-20.5 38t20 38.5t51 12.5zM466 482h199q30 0 50 -13t20 -38q0 -51 -71 -51h-198v-151q0 -30 -13 -50t-38 -20q-51 0 -51 71v150h-198q-30 0 -50.5 13t-20.5 38t20 38t51 13h198v150q0 30 13 50.5
t38 20.5t38 -20t13 -51v-150z" />
    <glyph glyph-name="paragraph" unicode="&#xb6;" horiz-adv-x="520" 
d="M377 647h-76v-808q0 -30 -13 -50t-38 -20q-51 0 -51 71v543q-78 0 -128.5 46.5t-50.5 122.5q0 79 54 124.5t137 45.5h192q76 0 76 -83v-800q0 -30 -13 -50t-38 -20q-51 0 -51 71v807z" />
    <glyph glyph-name="guillemotright" unicode="&#xbb;" horiz-adv-x="509" 
d="M297 455q34 0 71 -46l126 -152l-126 -152q-37 -46 -71 -46q-21 0 -32.5 10t-11.5 26q0 24 33 63l83 99l-83 99q-33 39 -33 63q0 16 11.5 26t32.5 10zM64 455q34 0 71 -46l126 -152l-126 -152q-37 -46 -71 -46q-21 0 -32.5 10t-11.5 26q0 24 33 63l83 99l-83 99
q-33 39 -33 63q0 16 11.5 26t32.5 10z" />
    <glyph glyph-name="tilde" unicode="&#x2dc;" 
d="M215 619q-15 0 -35 -9q-15 -6 -28 -8q-22 0 -32 14q-12 14 -12 39q0 37 24 62q25 25 60 25q18 0 47 -10q30 -8 45 -9q14 0 35 9q19 9 29 9q18 0 32 -15q12 -15 12 -39q0 -37 -24 -62t-60 -25q-17 0 -47 9q-29 10 -46 10z" />
    <glyph glyph-name="afii10023" unicode="&#x401;" horiz-adv-x="505" 
d="M225 561v-128h114q115 0 115 -75t-115 -75h-114v-133h137q115 0 115 -75t-115 -75h-189q-64 0 -87 22t-23 80v495q0 62 23.5 88t88.5 26h182q115 0 115 -76q0 -74 -115 -74h-132zM170 939q30 0 51.5 -21.5t21.5 -51.5t-21.5 -51t-51.5 -21t-51 21t-21 51t21 51.5t51 21.5
zM373 939q30 0 51.5 -21.5t21.5 -51.5t-21.5 -51t-51.5 -21t-51 21t-21 51t21 51.5t51 21.5z" />
    <glyph glyph-name="afii10051" unicode="&#x402;" horiz-adv-x="760" 
d="M337 561v-153q69 27 122 27q108 0 177 -52t69 -164q0 -219 -227 -219q-102 0 -102 68q0 36 23 51.5t74 15.5q70 0 70 83q0 82 -93 82q-63 0 -113 -31v-163q0 -115 -81 -115t-81 115v455h-60q-115 0 -115 74q0 76 115 76h336q115 0 115 -76q0 -74 -115 -74h-114z" />
    <glyph glyph-name="afii10052" unicode="&#x403;" horiz-adv-x="490" 
d="M175 711h182q115 0 115 -76q0 -74 -115 -74h-132v-455q0 -115 -81 -115t-81 115v491q0 62 23.5 88t88.5 26zM352 1015q27 0 45 -17t18 -43q0 -27 -26 -56l-76 -84q-28 -31 -54 -31q-24 0 -39 15t-15 40q0 20 17 44l73 100q22 32 57 32z" />
    <glyph glyph-name="afii10053" unicode="&#x404;" horiz-adv-x="632" 
d="M380 732q48 0 95.5 -12.5t82.5 -39.5t35 -63q0 -29 -21 -48t-49 -19q-25 0 -58.5 13.5t-83.5 13.5q-62 0 -109.5 -39.5t-55.5 -101.5h172q114 0 114 -76q0 -74 -114 -74h-175q14 -70 60 -111t113 -41q24 0 70 19.5t73 19.5q29 0 51 -21t22 -50q0 -56 -63 -89.5
t-161 -33.5q-156 0 -252 103.5t-96 272.5q0 165 98.5 271t251.5 106z" />
    <glyph glyph-name="afii10054" unicode="&#x405;" horiz-adv-x="566" 
d="M296 732q86 0 140 -31.5t54 -75.5q0 -32 -19 -50.5t-54 -18.5q-19 0 -62 13t-65 13q-37 0 -58 -17.5t-21 -44.5q0 -11 2.5 -19.5t9.5 -15t13 -11t19.5 -10t23 -8.5l29.5 -9.5l32 -10.5q100 -33 148 -85t48 -131q0 -105 -75.5 -173t-200.5 -68q-97 0 -163.5 35.5
t-66.5 80.5q0 33 21.5 53t58.5 20q18 0 75.5 -19.5t97.5 -19.5q34 0 57 22t23 54q0 39 -28.5 58.5t-95.5 39.5q-107 32 -154 76.5t-47 125.5q0 98 71 162.5t187 64.5z" />
    <glyph glyph-name="afii10055" unicode="&#x406;" horiz-adv-x="296" 
d="M148 723q81 0 81 -115v-502q0 -115 -81 -115t-81 115v502q0 115 81 115z" />
    <glyph glyph-name="afii10056" unicode="&#x407;" 
d="M154 610q-29 0 -48 16q-17 19 -17 46q0 28 18 45q18 18 47 18h192q28 0 48 -17q17 -15 17 -45q0 -27 -18 -46q-19 -17 -47 -17h-192z" />
    <glyph glyph-name="afii10057" unicode="&#x408;" horiz-adv-x="618" 
d="M363 731q115 0 190.5 -57t75.5 -125q0 -32 -20.5 -54.5t-49.5 -22.5q-20 0 -36 11.5t-29 28.5t-28 34t-40 28.5t-57 11.5q-39 0 -65 -22t-26 -52q0 -26 19 -80h103q115 0 115 -75t-115 -75h-82q0 -77 -43 -132h241q115 0 115 -75t-115 -75h-281q-81 0 -116 15t-35 65
q0 29 20 59.5t39.5 66t19.5 76.5h-29q-115 0 -115 75q0 36 27 55.5t77 19.5h9q-16 48 -16 92q0 89 69.5 148t177.5 59z" />
    <glyph glyph-name="afii10058" unicode="&#x409;" horiz-adv-x="1021" 
d="M468 561h-179v-101q0 -202 -73 -354q-29 -61 -57 -88t-64 -27q-34 0 -55.5 19t-21.5 50q0 35 32 79q49 67 65.5 114t16.5 128v216q0 64 24.5 89t87.5 25h274q63 0 87.5 -25t24.5 -89v-141h87q56 0 103 -12.5t86.5 -39t62 -72.5t22.5 -109q0 -93 -69 -158t-184 -65h-160
q-63 0 -86.5 21t-23.5 81v459zM630 318v-180h81q110 0 110 91q0 48 -27 68.5t-86 20.5h-78z" />
    <glyph glyph-name="afii10059" unicode="&#x40a;" horiz-adv-x="1045" 
d="M225 456h267v152q0 115 81 115t81 -115v-152h87q56 0 103 -12.5t86.5 -39t62 -72.5t22.5 -109q0 -93 -69 -158t-184 -65h-160q-63 0 -86.5 21t-23.5 81v216h-267v-212q0 -115 -81 -115t-81 115v502q0 115 81 115t81 -115v-152zM654 318v-180h81q110 0 110 91
q0 48 -27 68.5t-86 20.5h-78z" />
    <glyph glyph-name="afii10060" unicode="&#x40b;" horiz-adv-x="760" 
d="M337 561v-171q69 27 122 27q54 0 94.5 -10t77 -35.5t55.5 -75.5t19 -123v-67q0 -115 -81 -115t-81 115v55q0 70 -21.5 95.5t-71.5 25.5q-63 0 -113 -31v-145q0 -115 -81 -115t-81 115v455h-60q-115 0 -115 74q0 76 115 76h336q115 0 115 -76q0 -74 -115 -74h-114z" />
    <glyph glyph-name="afii10061" unicode="&#x40c;" horiz-adv-x="635" 
d="M144 723q81 0 81 -115v-179l210 238q50 56 84 56q29 0 51 -22t22 -52q0 -37 -41 -80l-179 -187l217 -236q41 -46 41 -80q0 -31 -23 -53t-52 -22q-17 0 -32.5 8.5t-25.5 18t-29 30.5l-243 268v-210q0 -115 -81 -115t-81 115v502q0 115 81 115zM418 1015q27 0 45 -17
t18 -43q0 -27 -26 -56l-76 -84q-28 -31 -54 -31q-24 0 -39 15t-15 40q0 20 17 44l73 100q22 32 57 32z" />
    <glyph glyph-name="afii10062" unicode="&#x40e;" horiz-adv-x="580" 
d="M101 723q28 0 46.5 -18t36.5 -51l130 -234l111 227q19 39 38 57.5t51 18.5q27 0 44 -17.5t17 -53.5q0 -25 -28 -76l-263 -490q-27 -51 -48.5 -73t-54.5 -22q-29 0 -49 18.5t-20 45.5q0 31 22 65l99 159l-182 285q-33 52 -33 88q0 33 26 52t57 19zM309 745q-61 0 -113 37
t-52 85q0 25 14 40t38 15q27 0 58.5 -32.5t59.5 -32.5q20 0 33.5 16.5t30 32.5t43.5 16q25 0 39 -14.5t14 -40.5q0 -48 -51.5 -85t-113.5 -37z" />
    <glyph glyph-name="afii10145" unicode="&#x40f;" horiz-adv-x="749" 
d="M225 150h299v458q0 115 81 115t81 -115v-493q0 -115 -81 -115h-152v-126q0 -115 -78 -115q-79 0 -79 115v126h-152q-81 0 -81 115v493q0 115 81 115t81 -115v-458z" />
    <glyph glyph-name="afii10017" unicode="&#x410;" horiz-adv-x="637" 
d="M230 284h169l-81 263zM322 723q85 0 119 -94l180 -511q11 -31 11 -51q0 -34 -23 -55t-57 -21q-60 0 -85 79l-20 64h-263l-24 -70q-24 -73 -78 -73q-34 0 -55.5 22t-21.5 56q0 27 8 47l185 502q38 105 124 105z" />
    <glyph glyph-name="afii10018" unicode="&#x411;" horiz-adv-x="616" 
d="M225 573v-139h88q273 0 273 -220q0 -91 -68.5 -152.5t-184.5 -61.5h-160q-63 0 -86.5 21t-23.5 81v495q0 64 24.5 89t87.5 25h221q115 0 115 -68q0 -39 -26 -54.5t-88 -15.5h-172zM225 299v-161h81q53 0 81.5 21t28.5 60q0 80 -113 80h-78z" />
    <glyph glyph-name="afii10019" unicode="&#x412;" horiz-adv-x="616" 
d="M175 711h133q107 0 164.5 -47.5t57.5 -129.5q0 -102 -88 -140q70 -17 107 -63.5t37 -116.5q0 -99 -65.5 -156.5t-187.5 -57.5h-160q-64 0 -87 22t-23 80v495q0 62 23.5 88t88.5 26zM225 299v-161h80q54 0 82.5 21t28.5 60q0 80 -113 80h-78zM225 573v-139h68
q36 0 58 19.5t22 49.5q0 32 -22 51t-60 19h-66z" />
    <glyph glyph-name="afii10020" unicode="&#x413;" horiz-adv-x="490" 
d="M175 711h182q115 0 115 -76q0 -74 -115 -74h-132v-455q0 -115 -81 -115t-81 115v491q0 62 23.5 88t88.5 26z" />
    <glyph glyph-name="afii10021" unicode="&#x414;" horiz-adv-x="830" 
d="M655 0h-480v-89q0 -115 -79 -115q-78 0 -78 115v117q0 57 27.5 89.5t69.5 32.5q73 72 73 263v184q0 64 24.5 89t87.5 25h300q63 0 87.5 -25t24.5 -89v-447q43 0 71.5 -28t28.5 -94v-117q0 -115 -78 -115q-79 0 -79 115v89zM550 150v411h-205v-42q0 -295 -72 -369h277z
" />
    <glyph glyph-name="afii10022" unicode="&#x415;" horiz-adv-x="505" 
d="M225 561v-128h114q115 0 115 -75t-115 -75h-114v-133h137q115 0 115 -75t-115 -75h-189q-64 0 -87 22t-23 80v495q0 62 23.5 88t88.5 26h182q115 0 115 -76q0 -74 -115 -74h-132z" />
    <glyph glyph-name="afii10024" unicode="&#x416;" horiz-adv-x="982" 
d="M491 723q81 0 81 -115v-179l210 238q50 56 84 56q29 0 51 -22t22 -52q0 -37 -41 -80l-179 -187l217 -236q41 -46 41 -80q0 -31 -23 -53t-52 -22q-17 0 -32.5 8.5t-25.5 18t-29 30.5l-243 268v-210q0 -115 -81 -115t-81 115v210l-243 -268q-19 -21 -29 -30.5t-25.5 -18
t-32.5 -8.5q-29 0 -52 22t-23 53q0 34 41 80l217 236l-179 187q-41 43 -41 80q0 30 22 52t51 22q34 0 84 -56l210 -238v179q0 59 19 87t62 28z" />
    <glyph glyph-name="afii10025" unicode="&#x417;" horiz-adv-x="613" 
d="M304 732q117 0 184.5 -53t67.5 -142q0 -45 -25 -84.5t-70 -61.5q122 -47 122 -182q0 -89 -79.5 -159.5t-193.5 -70.5q-131 0 -207.5 59t-76.5 127q0 22 22 44t54 22q23 0 41.5 -11.5t31.5 -28.5t27.5 -34t39 -28.5t57.5 -11.5q57 0 85.5 34t28.5 70q0 35 -20.5 59.5
t-67.5 24.5h-59q-34 0 -51 19t-17 51q0 65 68 65h36q45 0 68.5 23t23.5 63q0 32 -24.5 50t-61.5 18q-56 0 -84 -16.5t-51 -47.5q-29 -38 -64 -38q-29 0 -44 21t-15 48q0 66 74 118.5t180 52.5z" />
    <glyph glyph-name="afii10026" unicode="&#x418;" horiz-adv-x="748" 
d="M144 723q81 0 81 -115v-336l299 395q43 56 87 56q74 0 74 -112v-505q0 -115 -81 -115t-81 115v327l-293 -387q-41 -55 -93 -55q-39 0 -56.5 23.5t-17.5 73.5v520q0 115 81 115z" />
    <glyph glyph-name="afii10027" unicode="&#x419;" horiz-adv-x="748" 
d="M144 723q81 0 81 -115v-336l299 395q43 56 87 56q74 0 74 -112v-505q0 -115 -81 -115t-81 115v327l-293 -387q-41 -55 -93 -55q-39 0 -56.5 23.5t-17.5 73.5v520q0 115 81 115zM390 745q-61 0 -113 37t-52 85q0 25 14 40t38 15q27 0 58.5 -32.5t59.5 -32.5
q20 0 33.5 16.5t30 32.5t43.5 16q25 0 39 -14.5t14 -40.5q0 -48 -51.5 -85t-113.5 -37z" />
    <glyph glyph-name="afii10028" unicode="&#x41a;" horiz-adv-x="635" 
d="M144 723q81 0 81 -115v-179l210 238q50 56 84 56q29 0 51 -22t22 -52q0 -37 -41 -80l-179 -187l217 -236q41 -46 41 -80q0 -31 -23 -53t-52 -22q-17 0 -32.5 8.5t-25.5 18t-29 30.5l-243 268v-210q0 -115 -81 -115t-81 115v502q0 115 81 115z" />
    <glyph glyph-name="afii10029" unicode="&#x41b;" horiz-adv-x="719" 
d="M494 561h-205v-101q0 -202 -73 -354q-29 -61 -57 -88t-64 -27q-34 0 -55.5 19t-21.5 50q0 35 32 79q49 67 65.5 114t16.5 128v216q0 64 24.5 89t87.5 25h300q63 0 87.5 -25t24.5 -89v-491q0 -115 -81 -115t-81 115v455z" />
    <glyph glyph-name="afii10030" unicode="&#x41c;" horiz-adv-x="869" 
d="M221 723q89 0 113 -99l108 -425l101 426q24 98 111 98q52 0 78 -29t36 -91l79 -489q4 -23 4 -39q0 -39 -22.5 -61.5t-59.5 -22.5q-70 0 -80 94l-50 425h-1l-110 -438q-10 -39 -29 -60t-61 -21q-40 0 -62 18t-33 63l-104 438h-1l-56 -415q-8 -54 -28 -79t-57 -25
q-35 0 -57 22.5t-22 61.5q0 17 6 49l87 485q10 59 35 86.5t75 27.5z" />
    <glyph glyph-name="afii10031" unicode="&#x41d;" horiz-adv-x="748" 
d="M225 437h298v171q0 115 81 115t81 -115v-502q0 -115 -81 -115t-81 115v181h-298v-181q0 -115 -81 -115t-81 115v502q0 115 81 115t81 -115v-171z" />
    <glyph glyph-name="afii10032" unicode="&#x41e;" horiz-adv-x="758" 
d="M379 732q156 0 252.5 -103.5t96.5 -273.5q0 -168 -96 -272t-253 -104t-253 103.5t-96 272.5t96.5 273t252.5 104zM379 577q-78 0 -125.5 -60t-47.5 -164q0 -100 48 -159.5t125 -59.5t125 59.5t48 159.5q0 104 -47.5 164t-125.5 60z" />
    <glyph glyph-name="afii10033" unicode="&#x41f;" horiz-adv-x="748" 
d="M523 561h-298v-455q0 -115 -81 -115t-81 115v491q0 64 24.5 89t87.5 25h398q63 0 87.5 -25t24.5 -89v-491q0 -115 -81 -115t-81 115v455z" />
    <glyph glyph-name="afii10034" unicode="&#x420;" horiz-adv-x="612" 
d="M225 562v-187h70q111 0 111 94q0 93 -111 93h-70zM175 711h146q121 0 191 -65.5t70 -176.5q0 -112 -65.5 -176.5t-182.5 -64.5h-109v-122q0 -115 -81 -115t-81 115v491q0 62 23.5 88t88.5 26z" />
    <glyph glyph-name="afii10035" unicode="&#x421;" horiz-adv-x="630" 
d="M381 732q92 0 152 -32t60 -76q0 -29 -21 -52.5t-49 -23.5q-16 0 -63 14.5t-79 14.5q-78 0 -126.5 -62t-48.5 -164q0 -99 49 -158t131 -59q38 0 87 19.5t64 19.5q25 0 45 -21.5t20 -49.5q0 -49 -63.5 -86t-160.5 -37q-156 0 -252 102.5t-96 273.5q0 168 100.5 272.5
t250.5 104.5z" />
    <glyph glyph-name="afii10036" unicode="&#x422;" horiz-adv-x="512" 
d="M115 711h282q115 0 115 -76q0 -74 -115 -74h-60v-455q0 -115 -81 -115t-81 115v455h-60q-115 0 -115 74q0 76 115 76z" />
    <glyph glyph-name="afii10037" unicode="&#x423;" horiz-adv-x="580" 
d="M101 723q28 0 46.5 -18t36.5 -51l130 -234l111 227q19 39 38 57.5t51 18.5q27 0 44 -17.5t17 -53.5q0 -25 -28 -76l-263 -490q-27 -51 -48.5 -73t-54.5 -22q-29 0 -49 18.5t-20 45.5q0 31 22 65l99 159l-182 285q-33 52 -33 88q0 33 26 52t57 19z" />
    <glyph glyph-name="afii10038" unicode="&#x424;" horiz-adv-x="914" 
d="M457 723q39 0 60 -26t21 -72v-20h86q119 0 189.5 -64.5t70.5 -177.5q0 -110 -70 -175.5t-177 -65.5h-99v-31q0 -46 -20.5 -73t-60.5 -27q-81 0 -81 100v31h-99q-117 0 -182 64t-65 177t70 177.5t190 64.5h86v20q0 98 81 98zM538 467v-208h60q54 0 82 28t28 76
q0 49 -27 76.5t-83 27.5h-60zM376 259v208h-60q-56 0 -83 -27.5t-27 -76.5q0 -48 28 -76t82 -28h60z" />
    <glyph glyph-name="afii10039" unicode="&#x425;" horiz-adv-x="607" 
d="M122 723q36 0 83 -65l100 -140l102 142q45 63 86 63q27 0 49 -22.5t22 -49.5q0 -31 -36 -82l-131 -182l173 -244q37 -53 37 -82q0 -27 -22 -48.5t-52 -21.5q-45 0 -88 61l-144 202l-143 -201q-43 -62 -85 -62q-29 0 -51 22t-22 49q0 31 36 82l173 241l-130 182
q-36 50 -36 80q0 31 22.5 53.5t56.5 22.5z" />
    <glyph glyph-name="afii10040" unicode="&#x426;" horiz-adv-x="813" 
d="M225 150h298v458q0 115 81 115t81 -115v-458q62 0 86 -26t24 -97v-116q0 -115 -78 -115q-79 0 -79 115v89h-494q-81 0 -81 115v493q0 115 81 115t81 -115v-458z" />
    <glyph glyph-name="afii10041" unicode="&#x427;" horiz-adv-x="696" 
d="M131 723q81 0 81 -115v-112q0 -69 26.5 -95t78.5 -26q83 0 154 62v171q0 115 81 115t81 -115v-502q0 -115 -81 -115t-81 115v181q-30 -18 -76.5 -32.5t-86.5 -14.5q-43 0 -77.5 5.5t-69.5 22t-58.5 43t-38 70.5t-14.5 103v124q0 115 81 115z" />
    <glyph glyph-name="afii10042" unicode="&#x428;" horiz-adv-x="1042" 
d="M225 150h215v458q0 115 81 115t81 -115v-458h215v458q0 115 81 115t81 -115v-493q0 -115 -81 -115h-754q-81 0 -81 115v493q0 115 81 115t81 -115v-458z" />
    <glyph glyph-name="afii10043" unicode="&#x429;" horiz-adv-x="1107" 
d="M225 150h215v458q0 115 81 115t81 -115v-458h215v458q0 115 81 115t81 -115v-458q62 0 86 -26t24 -97v-116q0 -115 -78 -115q-79 0 -79 115v89h-788q-81 0 -81 115v493q0 115 81 115t81 -115v-458z" />
    <glyph glyph-name="afii10044" unicode="&#x42a;" horiz-adv-x="733" 
d="M121 711h140q81 0 81 -115v-140h87q56 0 103 -12.5t86.5 -39t62 -72.5t22.5 -109q0 -93 -69 -158t-184 -65h-160q-63 0 -86.5 21t-23.5 81v459h-59q-66 0 -91 17t-25 57q0 39 25 57.5t91 18.5zM342 318v-180h81q110 0 110 91q0 48 -27 68.5t-86 20.5h-78z" />
    <glyph glyph-name="afii10045" unicode="&#x42b;" horiz-adv-x="868" 
d="M724 723q81 0 81 -115v-502q0 -115 -81 -115t-81 115v502q0 115 81 115zM144 723q42 0 61.5 -25.5t19.5 -89.5v-152h87q56 0 103 -12.5t86.5 -39t62 -72.5t22.5 -109q0 -93 -69 -158t-184 -65h-160q-63 0 -86.5 21t-23.5 81v506q0 115 81 115zM225 318v-180h81
q110 0 110 91q0 48 -27 68.5t-86 20.5h-78z" />
    <glyph glyph-name="afii10046" unicode="&#x42c;" horiz-adv-x="616" 
d="M144 723q42 0 61.5 -25.5t19.5 -89.5v-152h87q56 0 103 -12.5t86.5 -39t62 -72.5t22.5 -109q0 -93 -69 -158t-184 -65h-160q-63 0 -86.5 21t-23.5 81v506q0 115 81 115zM225 318v-180h81q110 0 110 91q0 48 -27 68.5t-86 20.5h-78z" />
    <glyph glyph-name="afii10047" unicode="&#x42d;" horiz-adv-x="632" 
d="M252 732q153 0 251.5 -106t98.5 -271q0 -169 -96 -272.5t-252 -103.5q-98 0 -161 33.5t-63 89.5q0 29 22 50t51 21q27 0 73 -19.5t70 -19.5q67 0 113 41t60 111h-175q-114 0 -114 74q0 76 114 76h172q-8 62 -55.5 101.5t-109.5 39.5q-50 0 -83.5 -13.5t-58.5 -13.5
q-28 0 -49 19t-21 48q0 36 35 63t82.5 39.5t95.5 12.5z" />
    <glyph glyph-name="afii10048" unicode="&#x42e;" horiz-adv-x="1080" 
d="M225 437h134q23 135 115 215t227 80q156 0 252.5 -103.5t96.5 -273.5q0 -168 -96 -272t-253 -104q-140 0 -232.5 83.5t-111.5 224.5h-132v-181q0 -115 -81 -115t-81 115v502q0 115 81 115t81 -115v-171zM701 577q-78 0 -125.5 -60t-47.5 -164q0 -100 48 -159.5t125 -59.5
t125 59.5t48 159.5q0 104 -47.5 164t-125.5 60z" />
    <glyph glyph-name="afii10049" unicode="&#x42f;" horiz-adv-x="621" 
d="M306 711h140q63 0 87.5 -25t24.5 -89v-491q0 -115 -81 -115t-81 115v165l-199 -227q-46 -53 -98 -53q-28 0 -48.5 21t-20.5 50q0 42 52 93l136 130q-89 27 -129.5 78.5t-40.5 135.5q0 95 65 153.5t193 58.5zM396 379v183h-77q-101 0 -101 -85q0 -98 103 -98h75z" />
    <glyph glyph-name="afii10065" unicode="&#x430;" horiz-adv-x="603" 
d="M289 402q-43 0 -72.5 -38t-29.5 -96q0 -60 29 -98.5t73 -38.5t73.5 39.5t29.5 97.5q0 57 -30 95.5t-73 38.5zM396 48q-50 -61 -132 -61q-99 0 -169 79t-70 200q0 119 71.5 199.5t173.5 80.5q78 0 126 -57q28 50 75 50q78 0 78 -114v-317q0 -115 -78 -115q-50 0 -75 55z
" />
    <glyph glyph-name="afii10066" unicode="&#x431;" horiz-adv-x="612" 
d="M587 266q0 -123 -74.5 -201t-191.5 -78q-118 0 -192.5 73.5t-74.5 205.5v97q0 131 28.5 223t112.5 151q60 42 159 71t119 39q25 13 49 13q27 0 46 -20.5t19 -47.5q0 -44 -44 -74q-20 -13 -48.5 -24.5t-48 -17l-63.5 -17.5l-62 -17q-40 -11 -64.5 -22t-51 -32t-39 -56
t-12.5 -85q77 99 187 99q106 0 176 -71.5t70 -208.5zM321 402q-48 0 -76.5 -33t-28.5 -101q0 -60 29 -98.5t76 -38.5q46 0 75 38t29 99q0 57 -26.5 95.5t-77.5 38.5z" />
    <glyph glyph-name="afii10067" unicode="&#x432;" horiz-adv-x="572" 
d="M410 291q48 -8 90 -41t42 -91q0 -76 -56.5 -117.5t-138.5 -41.5h-212q-41 0 -61 27t-20 86v311q0 57 25 86t70 29h205q77 0 119 -31.5t42 -93.5q0 -44 -32 -77t-73 -46zM211 420v-93h91q29 0 46 14.5t17 34.5q0 44 -58 44h-96zM211 233v-107h98q78 0 78 58q0 24 -22 36.5
t-56 12.5h-98z" />
    <glyph glyph-name="afii10068" unicode="&#x433;" horiz-adv-x="432" 
d="M152 532h156q99 0 99 -70q0 -65 -99 -65h-97v-289q0 -115 -78 -115q-79 0 -79 115v286q0 71 24 104.5t74 33.5z" />
    <glyph glyph-name="afii10069" unicode="&#x434;" horiz-adv-x="635" 
d="M195 532h268q42 0 63 -25t21 -90v-282q44 0 60 -23.5t16 -76.5v-102q0 -60 -17 -87.5t-58 -27.5q-42 0 -58.5 27t-16.5 88v67h-318v-67q0 -60 -17.5 -87.5t-58.5 -27.5q-39 0 -56.5 28t-17.5 87v102q0 54 14.5 77t61.5 23q31 47 31 104v178q0 68 20 91.5t63 23.5z
M390 397h-133v-182q0 -18 -9 -46t-17 -34h159v262z" />
    <glyph glyph-name="afii10070" unicode="&#x435;" horiz-adv-x="572" 
d="M187 223q5 -45 37 -71.5t82 -26.5q45 0 99 25.5t67 25.5q28 0 45.5 -17t17.5 -44q0 -49 -69 -88.5t-168 -39.5q-117 0 -195 79.5t-78 199.5t76 200t189 80q111 0 184 -75.5t73 -183.5q0 -39 -17.5 -51.5t-60.5 -12.5h-282zM186 325h208q-3 41 -33 67t-70 26t-68.5 -25
t-36.5 -68z" />
    <glyph glyph-name="afii10072" unicode="&#x436;" horiz-adv-x="795" 
d="M396 539q80 0 80 -114v-67l134 139q41 42 82 42q28 0 46.5 -17.5t18.5 -42.5q0 -39 -40 -76l-106 -98l147 -173q31 -37 31 -76q0 -27 -21 -45t-53 -18q-46 0 -82 47l-157 210v-142q0 -115 -80 -115q-77 0 -77 114v142l-157 -210q-35 -46 -82 -46q-32 0 -53 17.5t-21 44.5
q0 39 31 76l147 173l-106 98q-40 37 -40 76q0 25 19 43t47 18q39 0 81 -43l134 -139v67q0 115 77 115z" />
    <glyph glyph-name="afii10073" unicode="&#x437;" horiz-adv-x="533" 
d="M278 546q96 0 152 -35.5t56 -102.5q0 -78 -92 -121q49 -11 79 -46t30 -75q0 -80 -70 -129.5t-181 -49.5q-92 0 -159.5 40.5t-67.5 92.5q0 27 16.5 44.5t42.5 17.5q21 0 36 -7.5t25 -18t22 -21t35 -18t57 -7.5q36 0 61.5 19t25.5 51q0 49 -71 49h-35q-32 0 -44.5 12
t-12.5 39q0 47 57 47h27q30 0 46 13.5t16 36.5q0 46 -70 46q-46 0 -90.5 -25t-56.5 -25q-25 0 -45 19.5t-20 42.5q0 48 70 79.5t161 31.5z" />
    <glyph glyph-name="afii10074" unicode="&#x438;" horiz-adv-x="583" 
d="M132 539q79 0 79 -115v-172l161 241q31 46 78 46q79 0 79 -115v-316q0 -115 -79 -115q-78 0 -78 115v166l-182 -253q-20 -28 -58 -28q-78 0 -78 115v316q0 115 78 115z" />
    <glyph glyph-name="afii10075" unicode="&#x439;" horiz-adv-x="583" 
d="M132 539q79 0 79 -115v-172l161 241q31 46 78 46q79 0 79 -115v-316q0 -115 -79 -115q-78 0 -78 115v166l-182 -253q-20 -28 -58 -28q-78 0 -78 115v316q0 115 78 115zM298 561q-52 0 -96 31.5t-44 72.5q0 21 12 33.5t33 12.5q23 0 48 -27.5t45 -27.5q19 0 45 27.5
t53 27.5q20 0 32 -12t12 -34q0 -42 -43.5 -73t-96.5 -31z" />
    <glyph glyph-name="afii10076" unicode="&#x43a;" horiz-adv-x="525" 
d="M133 539q78 0 78 -115v-66l135 139q41 42 81 42q28 0 47 -17.5t19 -42.5q0 -39 -40 -76l-106 -98l147 -173q31 -37 31 -76q0 -27 -21 -45t-53 -18q-46 0 -82 47l-158 210v-142q0 -115 -78 -115q-79 0 -79 115v316q0 115 79 115z" />
    <glyph glyph-name="afii10077" unicode="&#x43b;" horiz-adv-x="559" 
d="M348 397h-133v-182q0 -56 -15.5 -107t-46.5 -86t-71 -35q-28 0 -46 19.5t-18 46.5q0 21 26 67t26 83v214q0 57 22 86t61 29h268q84 0 84 -115v-309q0 -115 -79 -115q-78 0 -78 115v289z" />
    <glyph glyph-name="afii10078" unicode="&#x43c;" horiz-adv-x="809" 
d="M161 539q48 0 81 -57l167 -287l165 298q25 46 74 46q42 0 64 -23.5t27 -91.5l21 -278q4 -46 4 -59q0 -94 -70 -94q-77 0 -86 115l-13 163l-116 -216q-14 -26 -35 -44t-40 -18t-39.5 19.5t-35.5 47.5l-114 211l-14 -163q-5 -60 -26 -87.5t-60 -27.5q-70 0 -70 93q0 5 4 59
l22 279q5 64 27 89.5t63 25.5z" />
    <glyph glyph-name="afii10079" unicode="&#x43d;" horiz-adv-x="585" 
d="M211 342h163v82q0 115 80 115q77 0 77 -115v-316q0 -115 -79 -115q-78 0 -78 115v108h-163v-107q0 -116 -79 -116q-78 0 -78 115v316q0 115 83 115q42 0 58 -28t16 -86v-83z" />
    <glyph glyph-name="afii10080" unicode="&#x43e;" horiz-adv-x="583" 
d="M292 546q117 0 191.5 -78.5t74.5 -201.5t-74.5 -201t-191.5 -78t-192 78t-75 201t75.5 201.5t191.5 78.5zM292 402q-45 0 -75 -37.5t-30 -97.5q0 -61 29.5 -98.5t75.5 -37.5q45 0 74.5 38t29.5 99q0 59 -30 96.5t-74 37.5z" />
    <glyph glyph-name="afii10081" unicode="&#x43f;" horiz-adv-x="585" 
d="M531 108q0 -115 -78 -115q-79 0 -79 115v289h-163v-289q0 -115 -77 -115q-80 0 -80 115v309q0 64 19.5 89.5t60.5 25.5h319q40 0 59 -24t19 -91v-309z" />
    <glyph glyph-name="afii10082" unicode="&#x440;" horiz-adv-x="603" 
d="M208 493q48 53 130 53q101 0 170.5 -78t69.5 -198q0 -118 -71 -200.5t-171 -82.5q-70 0 -125 47v-135q0 -115 -78 -115q-79 0 -79 115v530q0 57 19 83.5t60 26.5q49 0 75 -46zM313 402q-44 0 -73 -37t-29 -98q0 -62 28.5 -99t73.5 -37t74 38t29 99q0 59 -29.5 96.5
t-73.5 37.5z" />
    <glyph glyph-name="afii10083" unicode="&#x441;" horiz-adv-x="497" 
d="M296 546q79 0 127.5 -28t48.5 -73q0 -29 -18.5 -48t-46.5 -19q-13 0 -50 12t-61 12q-48 0 -78.5 -38t-30.5 -99q0 -62 30.5 -98t84.5 -36q26 0 62 12t46 12q27 0 44 -20t17 -48q0 -42 -52 -71t-133 -29q-116 0 -188.5 77t-72.5 202q0 124 74.5 202t196.5 78z" />
    <glyph glyph-name="afii10084" unicode="&#x442;" 
d="M99 532h296q51 0 73 -15t22 -52q0 -68 -96 -68h-66v-289q0 -59 -18.5 -87t-58.5 -28q-80 0 -80 115v289h-70q-50 0 -70.5 16.5t-20.5 51.5q0 36 20.5 51.5t68.5 15.5z" />
    <glyph glyph-name="afii10085" unicode="&#x443;" 
d="M82 539q31 0 48 -18t32 -58l89 -238l97 251q25 63 69 63q36 0 57 -20t21 -55q0 -25 -13 -55l-240 -570q-14 -33 -29 -48.5t-40 -15.5q-36 0 -57 20.5t-21 55.5q0 25 13 54l65 141l-159 371q-9 19 -9 44q0 33 22.5 55.5t54.5 22.5z" />
    <glyph glyph-name="afii10086" unicode="&#x444;" horiz-adv-x="939" 
d="M469 764q40 0 59.5 -26t19.5 -89v-157q49 54 126 54q101 0 170.5 -80.5t69.5 -199.5q0 -117 -70 -198t-172 -81q-74 0 -124 42v-134q0 -59 -19 -87t-60 -28q-78 0 -78 115v134q-51 -42 -125 -42q-101 0 -171 82t-70 199q0 119 69.5 198.5t171.5 79.5q76 0 125 -54v157
q0 62 18 88.5t60 26.5zM649 402q-44 0 -72.5 -39.5t-28.5 -98.5t27 -96t74 -37q46 0 74.5 36t28.5 97q0 58 -29 98t-74 40zM290 402q-45 0 -74 -39.5t-29 -97.5q0 -62 28 -98t74 -36q47 0 74.5 37t27.5 96t-28 98.5t-73 39.5z" />
    <glyph glyph-name="afii10087" unicode="&#x445;" horiz-adv-x="513" 
d="M98 539q36 0 65 -33l96 -111l88 108q30 36 64 36q33 0 57 -23t24 -54q0 -30 -35 -68l-104 -111l123 -139q37 -41 37 -78q0 -30 -21 -51.5t-51 -21.5q-37 0 -72 41l-113 134l-112 -134q-35 -41 -68 -41q-30 0 -53 22.5t-23 55.5t33 69l131 144l-110 112q-30 32 -30 64
q0 31 22 55t52 24z" />
    <glyph glyph-name="afii10088" unicode="&#x446;" horiz-adv-x="622" 
d="M211 135h162v289q0 115 79 115q78 0 78 -119v-285q37 0 57 -22t20 -78v-102q0 -60 -16.5 -89.5t-55.5 -29.5q-42 0 -60 27.5t-18 87.5v71h-324q-79 0 -79 115v309q0 115 79 115q78 0 78 -115v-289z" />
    <glyph glyph-name="afii10089" unicode="&#x447;" horiz-adv-x="561" 
d="M110 539q77 0 77 -115v-53q0 -83 75 -83q37 0 62.5 18t25.5 48v70q0 115 78 115q79 0 79 -115v-316q0 -61 -19.5 -88t-59.5 -27t-59 27.5t-19 87.5v91q-44 -26 -120 -26q-86 0 -143 45.5t-57 138.5v67q0 115 80 115z" />
    <glyph glyph-name="afii10090" unicode="&#x448;" horiz-adv-x="899" 
d="M211 135h160v289q0 115 78 115q79 0 79 -115v-289h160v289q0 115 78 115q79 0 79 -115v-309q0 -115 -76 -115h-638q-77 0 -77 115v308q0 116 77 116q80 0 80 -115v-289z" />
    <glyph glyph-name="afii10091" unicode="&#x449;" horiz-adv-x="937" 
d="M211 135h160v289q0 115 78 115q79 0 79 -115v-289h160v289q0 115 78 115q79 0 79 -115v-289q37 0 57 -22t20 -78v-102q0 -60 -16.5 -89.5t-55.5 -29.5q-42 0 -60 27.5t-18 87.5v71h-641q-77 0 -77 115v308q0 116 77 116q80 0 80 -115v-289z" />
    <glyph glyph-name="afii10092" unicode="&#x44a;" horiz-adv-x="663" 
d="M100 532h139q78 0 78 -115v-56h84q237 0 237 -170q0 -84 -64.5 -137.5t-171.5 -53.5h-163q-79 0 -79 113v284h-67q-41 0 -64.5 16.5t-23.5 48.5q0 70 95 70zM317 249v-123h87q77 0 77 64q0 59 -77 59h-87z" />
    <glyph glyph-name="afii10093" unicode="&#x44b;" horiz-adv-x="796" 
d="M664 539q78 0 78 -114v-317q0 -115 -78 -115q-79 0 -79 115v317q0 114 79 114zM133 539q78 0 78 -115v-63h84q237 0 237 -170q0 -84 -64.5 -137.5t-171.5 -53.5h-163q-79 0 -79 113v311q0 115 79 115zM211 249v-123h87q77 0 77 64q0 59 -77 59h-87z" />
    <glyph glyph-name="afii10094" unicode="&#x44c;" horiz-adv-x="557" 
d="M133 539q78 0 78 -115v-63h84q237 0 237 -170q0 -84 -64.5 -137.5t-171.5 -53.5h-163q-79 0 -79 113v311q0 115 79 115zM211 249v-123h87q77 0 77 64q0 59 -77 59h-87z" />
    <glyph glyph-name="afii10095" unicode="&#x44d;" horiz-adv-x="503" 
d="M207 546q121 0 196 -77.5t75 -202.5q0 -116 -74 -197.5t-188 -81.5q-79 0 -132 31t-53 74q0 59 59 59q23 0 53 -14.5t56 -14.5q39 0 71.5 26t45.5 68h-103q-89 0 -89 58q0 68 101 68h91q-28 69 -107 69q-36 0 -66 -13.5t-46 -13.5q-30 0 -48.5 17.5t-18.5 45.5
q0 47 54 73t123 26z" />
    <glyph glyph-name="afii10096" unicode="&#x44e;" horiz-adv-x="835" 
d="M211 332h73q16 96 88.5 155t171.5 59q117 0 191.5 -78t74.5 -202q0 -123 -74.5 -201t-191.5 -78q-101 0 -172.5 56t-87.5 163h-73v-98q0 -115 -79 -115q-78 0 -78 115v316q0 115 83 115q41 0 57.5 -28.5t16.5 -86.5v-92zM544 402q-47 0 -75.5 -37t-28.5 -97t28 -98.5
t75 -38.5q46 0 75.5 38t29.5 99q0 62 -28.5 98t-75.5 36z" />
    <glyph glyph-name="afii10097" unicode="&#x44f;" horiz-adv-x="572" 
d="M518 93q0 -100 -80 -100q-38 0 -57.5 29.5t-19.5 70.5v114h-54l-140 -173q-34 -41 -75 -41q-25 0 -43.5 19.5t-18.5 47.5q0 39 50 91l87 88q-120 32 -120 153q0 66 50 106.5t127 40.5h200q52 0 73 -28t21 -87v-331zM361 305v119h-85q-72 0 -72 -58q0 -61 72 -61h85z" />
    <glyph glyph-name="afii10071" unicode="&#x451;" horiz-adv-x="572" 
d="M187 223q5 -45 37 -71.5t82 -26.5q45 0 99 25.5t67 25.5q28 0 45.5 -17t17.5 -44q0 -49 -69 -88.5t-168 -39.5q-117 0 -195 79.5t-78 199.5t76 200t189 80q111 0 184 -75.5t73 -183.5q0 -39 -17.5 -51.5t-60.5 -12.5h-282zM186 325h208q-3 41 -33 67t-70 26t-68.5 -25
t-36.5 -68zM176 773q30 0 51.5 -21.5t21.5 -51.5t-21.5 -51t-51.5 -21t-51 21t-21 51t21 51.5t51 21.5zM392 773q30 0 51.5 -21.5t21.5 -51.5t-21.5 -51t-51.5 -21t-51 21t-21 51t21 51.5t51 21.5z" />
    <glyph glyph-name="afii10099" unicode="&#x452;" horiz-adv-x="592" 
d="M133 763q78 0 78 -115v-7h164q91 0 91 -60t-85 -60h-170v-115h1q43 46 134 46q93 0 142.5 -51t49.5 -153v-197q0 -103 -15.5 -171.5t-49 -108t-79 -55.5t-111.5 -16q-62 0 -108.5 24t-46.5 73q0 26 16.5 45.5t45.5 19.5q24 0 58 -13.5t55 -13.5q43 0 60.5 52.5
t17.5 155.5v156q0 64 -18.5 91t-65.5 27q-45 0 -65.5 -28t-20.5 -87v-93q0 -116 -78 -116q-79 0 -79 115v413h-6q-85 0 -85 60t91 60v7q0 115 79 115z" />
    <glyph glyph-name="afii10100" unicode="&#x453;" horiz-adv-x="432" 
d="M152 532h156q99 0 99 -70q0 -65 -99 -65h-97v-289q0 -115 -78 -115q-79 0 -79 115v286q0 71 24 104.5t74 33.5zM301 802q26 0 43.5 -17t17.5 -42t-25 -54l-74 -81q-28 -31 -52 -31t-38.5 14.5t-14.5 39.5q0 20 17 42l70 97q22 32 56 32z" />
    <glyph glyph-name="afii10101" unicode="&#x454;" horiz-adv-x="503" 
d="M296 546q69 0 123 -26t54 -73q0 -28 -18.5 -45.5t-48.5 -17.5q-16 0 -46 13.5t-66 13.5q-79 0 -107 -69h110q101 0 101 -68q0 -58 -89 -58h-122q13 -42 45.5 -68t71.5 -26q26 0 56 14.5t53 14.5q59 0 59 -59q0 -43 -53 -74t-132 -31q-114 0 -188 81.5t-74 197.5
q0 125 75 202.5t196 77.5z" />
    <glyph glyph-name="afii10102" unicode="&#x455;" horiz-adv-x="456" 
d="M236 546q80 0 133 -32t53 -75q0 -28 -19 -47t-46 -19q-18 0 -61.5 19t-65.5 19q-17 0 -26.5 -7.5t-9.5 -19.5q0 -9 4.5 -15.5t15.5 -12.5t21 -10.5t31 -12.5t36 -15q67 -30 98 -65t31 -88q0 -76 -59 -127t-152 -51q-87 0 -141 31.5t-54 80.5q0 30 17.5 49.5t42.5 19.5
q29 0 74 -23t73 -23q19 0 31.5 11.5t12.5 25.5q0 26 -87 58q-150 55 -150 161q0 72 55 120t142 48z" />
    <glyph glyph-name="afii10103" unicode="&#x456;" horiz-adv-x="275" 
d="M138 539q78 0 78 -114v-317q0 -115 -78 -115q-79 0 -79 115v317q0 114 79 114zM138 764q38 0 64 -26t26 -64t-26 -64.5t-64 -26.5t-64.5 26.5t-26.5 64.5q0 37 26.5 63.5t64.5 26.5z" />
    <glyph glyph-name="afii10104" unicode="&#x457;" horiz-adv-x="275" 
d="M138 539q78 0 78 -114v-317q0 -115 -78 -115q-79 0 -79 115v317q0 114 79 114zM28 782q30 0 51.5 -21.5t21.5 -51.5t-21.5 -51t-51.5 -21t-51 21t-21 51t21 51.5t51 21.5zM246 782q30 0 51.5 -21.5t21.5 -51.5t-21.5 -51t-51.5 -21t-51 21t-21 51t21 51.5t51 21.5z" />
    <glyph glyph-name="afii10105" unicode="&#x458;" horiz-adv-x="275" 
d="M138 539q78 0 78 -114v-530q0 -115 -78 -115q-79 0 -79 115v530q0 114 79 114zM47 674q0 37 26.5 63.5t64.5 26.5t64 -26t26 -64t-26 -64.5t-64 -26.5t-64.5 26.5t-26.5 64.5z" />
    <glyph glyph-name="afii10106" unicode="&#x459;" horiz-adv-x="835" 
d="M348 397h-133v-182q0 -56 -15.5 -107t-46.5 -86t-71 -35q-28 0 -46 19.5t-18 46.5q0 21 26 67t26 83v214q0 57 22 86t61 29h268q84 0 84 -115v-56h68q237 0 237 -170q0 -84 -64.5 -137.5t-171.5 -53.5h-147q-79 0 -79 113v284zM505 249v-123h71q77 0 77 64q0 59 -77 59
h-71z" />
    <glyph glyph-name="afii10107" unicode="&#x45a;" horiz-adv-x="861" 
d="M211 361h163v63q0 115 80 115q77 0 77 -115v-63h68q237 0 237 -170q0 -84 -64.5 -137.5t-171.5 -53.5h-147q-79 0 -79 113v136h-163v-140q0 -116 -79 -116q-78 0 -78 115v316q0 115 83 115q42 0 58 -28t16 -86v-64zM531 249v-123h71q77 0 77 64q0 59 -77 59h-71z" />
    <glyph glyph-name="afii10108" unicode="&#x45b;" horiz-adv-x="592" 
d="M133 763q78 0 78 -115v-7h164q91 0 91 -60t-85 -60h-170v-115h1q43 46 134 46q93 0 142.5 -51t49.5 -153v-139q0 -116 -78 -116q-79 0 -79 115v91q0 64 -18.5 91t-65.5 27q-45 0 -65.5 -28t-20.5 -87v-93q0 -116 -78 -116q-79 0 -79 115v413h-6q-85 0 -85 60t91 60v7
q0 115 79 115z" />
    <glyph glyph-name="afii10109" unicode="&#x45c;" horiz-adv-x="525" 
d="M133 539q78 0 78 -115v-66l135 139q41 42 81 42q28 0 47 -17.5t19 -42.5q0 -39 -40 -76l-106 -98l147 -173q31 -37 31 -76q0 -27 -21 -45t-53 -18q-46 0 -82 47l-158 210v-142q0 -115 -78 -115q-79 0 -79 115v316q0 115 79 115zM370 802q26 0 43.5 -17t17.5 -42t-25 -54
l-74 -81q-28 -31 -52 -31t-38.5 14.5t-14.5 39.5q0 20 17 42l70 97q22 32 56 32z" />
    <glyph glyph-name="afii10110" unicode="&#x45e;" 
d="M82 539q31 0 48 -18t32 -58l89 -238l97 251q25 63 69 63q36 0 57 -20t21 -55q0 -25 -13 -55l-240 -570q-14 -33 -29 -48.5t-40 -15.5q-36 0 -57 20.5t-21 55.5q0 25 13 54l65 141l-159 371q-9 19 -9 44q0 33 22.5 55.5t54.5 22.5zM261 561q-52 0 -96 31.5t-44 72.5
q0 21 12 33.5t33 12.5q23 0 48 -27.5t45 -27.5q19 0 45 27.5t53 27.5q20 0 32 -12t12 -34q0 -42 -43.5 -73t-96.5 -31z" />
    <glyph glyph-name="afii10193" unicode="&#x45f;" horiz-adv-x="585" 
d="M211 135h164v289q0 115 80 115q77 0 77 -115v-311q0 -59 -20 -86t-61 -27h-83v-67q0 -60 -17 -87.5t-58 -27.5q-42 0 -58.5 27t-16.5 88v67h-83q-41 0 -61 27t-20 86v311q0 115 83 115q42 0 58 -28t16 -86v-290z" />
    <glyph glyph-name="afii10050" unicode="&#x490;" horiz-adv-x="490" 
d="M175 711h157v59q0 61 14 84.5t54 23.5q72 0 72 -108v-105q0 -52 -19 -78t-63 -26h-165v-455q0 -115 -81 -115t-81 115v491q0 62 23.5 88t88.5 26z" />
    <glyph glyph-name="afii10098" unicode="&#x491;" 
d="M316 808q27 0 45 -17t18 -43q0 -27 -26 -56l-76 -84q-28 -31 -54 -31q-24 0 -39 15t-15 40q0 20 17 44l73 100q22 32 57 32z" />
    <glyph glyph-name="endash" unicode="&#x2013;" horiz-adv-x="540" 
d="M91 329h359q30 0 50 -13t20 -38q0 -51 -71 -51h-358q-30 0 -50.5 13t-20.5 38t20 38t51 13z" />
    <glyph glyph-name="emdash" unicode="&#x2014;" horiz-adv-x="1020" 
d="M81 329h859q30 0 50 -13t20 -38q0 -51 -71 -51h-858q-30 0 -50.5 13t-20.5 38t20 38t51 13z" />
    <glyph glyph-name="quoteleft" unicode="&#x2018;" horiz-adv-x="250" 
d="M180 807q27 0 46.5 -17.5t19.5 -44.5q0 -21 -16 -51l-79 -144q-30 -55 -70 -55q-27 0 -46.5 18t-19.5 45q0 22 16 50l79 144q30 55 70 55z" />
    <glyph glyph-name="quoteright" unicode="&#x2019;" horiz-adv-x="250" 
d="M180 807q27 0 46.5 -17.5t19.5 -44.5q0 -21 -16 -51l-79 -144q-30 -55 -70 -55q-27 0 -46.5 18t-19.5 45q0 22 16 50l79 144q30 55 70 55z" />
    <glyph glyph-name="quotedblleft" unicode="&#x201c;" horiz-adv-x="471" 
d="M180 807q27 0 46.5 -17.5t19.5 -44.5q0 -21 -16 -51l-79 -144q-30 -55 -70 -55q-27 0 -46.5 18t-19.5 45q0 22 16 50l79 144q30 55 70 55zM401 807q27 0 46.5 -17.5t19.5 -44.5q0 -21 -16 -51l-79 -144q-30 -55 -70 -55q-27 0 -46.5 18t-19.5 45q0 22 16 50l79 144
q30 55 70 55z" />
    <glyph glyph-name="quotedblright" unicode="&#x201d;" horiz-adv-x="471" 
d="M180 807q27 0 46.5 -17.5t19.5 -44.5q0 -21 -16 -51l-79 -144q-30 -55 -70 -55q-27 0 -46.5 18t-19.5 45q0 22 16 50l79 144q30 55 70 55zM401 807q27 0 46.5 -17.5t19.5 -44.5q0 -21 -16 -51l-79 -144q-30 -55 -70 -55q-27 0 -46.5 18t-19.5 45q0 22 16 50l79 144
q30 55 70 55z" />
    <glyph glyph-name="quotedblbase" unicode="&#x201e;" horiz-adv-x="501" 
d="M151 162q27 0 46.5 -17.5t19.5 -44.5q0 -21 -16 -51l-79 -144q-30 -55 -70 -55q-27 0 -46.5 18t-19.5 45q0 22 16 50l79 144q30 55 70 55zM400 162q27 0 46.5 -17.5t19.5 -44.5q0 -21 -16 -51l-79 -144q-30 -55 -70 -55q-27 0 -46.5 18t-19.5 45q0 22 16 50l79 144
q30 55 70 55z" />
    <glyph glyph-name="dagger" unicode="&#x2020;" horiz-adv-x="537" 
d="M269 731q67 0 67 -99v-118h99q77 0 77 -57q0 -28 -20.5 -43t-57.5 -15h-98v-473q0 -100 -67 -100q-68 0 -68 100v473h-98q-37 0 -57.5 15.5t-20.5 42.5q0 57 79 57h97v118q0 99 68 99z" />
    <glyph glyph-name="bullet" unicode="&#x2022;" horiz-adv-x="465" 
d="M50 372q0 76 53.5 129t129.5 53q75 0 128.5 -53t53.5 -129q0 -75 -54 -129t-129 -54q-76 0 -129 53.5t-53 129.5z" />
    <glyph glyph-name="ellipsis" unicode="&#x2026;" horiz-adv-x="998" 
d="M166 175q38 0 64.5 -26.5t26.5 -64.5t-26.5 -64.5t-64.5 -26.5t-64.5 26.5t-26.5 64.5t26.5 64.5t64.5 26.5zM499 175q37 0 64 -26.5t27 -64.5t-26.5 -64.5t-64.5 -26.5t-64.5 26.5t-26.5 64.5t27 64.5t64 26.5zM832 175q38 0 64.5 -26.5t26.5 -64.5t-26.5 -64.5
t-64.5 -26.5t-64.5 26.5t-26.5 64.5t26.5 64.5t64.5 26.5z" />
    <glyph glyph-name="Euro" unicode="&#x20ac;" 
d="M250 653l-87 -53q-25 -15 -46 -15t-34 14t-13 37q0 30 30 54l109 85q21 16 41 16t41 -16l109 -85q30 -24 30 -54q0 -23 -13 -37t-34 -14t-46 15z" />
    <glyph glyph-name="afii61352" unicode="&#x2116;" horiz-adv-x="1193" 
d="M138 723q43 0 86 -56l299 -395v336q0 115 81 115t81 -115v-520q0 -50 -17.5 -73.5t-56.5 -23.5q-52 0 -112 80l-274 362v-327q0 -115 -81 -115t-81 115v505q0 112 75 112zM959 552q-35 0 -58 -26.5t-23 -65.5t22.5 -66.5t58.5 -27.5t57.5 27t21.5 67q0 38 -22 65t-57 27z
M959 657q86 0 142.5 -56t56.5 -143q0 -86 -56 -141.5t-143 -55.5q-88 0 -144.5 55.5t-56.5 141.5q0 88 57.5 143.5t143.5 55.5zM848 194h204q37 0 57.5 -18t20.5 -50q0 -67 -79 -67h-203q-37 0 -57.5 18t-20.5 50q0 67 78 67z" />
    <glyph glyph-name="trademark" unicode="&#x2122;" horiz-adv-x="833" 
d="M550 552l45 122q9 25 20 32.5t41 7.5q28 0 39 -10t11 -40v-189q0 -28 -33 -28t-33 28v172l-66 -176q-9 -24 -24 -24q-9 0 -13.5 5t-10.5 19l-68 176v-172q0 -28 -33 -28t-33 28v199q0 24 10 32t41 8q27 0 39 -8t22 -34zM110 714h219q21 0 21 -27q0 -28 -21 -28h-73v-180
q0 -32 -35 -32q-38 0 -38 32v180h-73q-21 0 -21 28q0 27 21 27z" />
    <glyph glyph-name="Euro.001" horiz-adv-x="651" 
d="M600 567h-27q-18 111 -138 111q-82 0 -122.5 -63t-50.5 -181h274l-23 -53h-254q0 -5 -0.5 -16t-0.5 -16q0 -24 1 -32h225l-23 -53h-200q8 -112 53.5 -172t121.5 -60q53 0 90.5 27t46.5 83h27l-8 -104q-58 -58 -192 -58q-266 0 -300 284h-79l23 53h48q-2 20 -2 34
q0 3 0.5 14.5t0.5 15.5h-70l23 53h52q19 144 90.5 220.5t213.5 76.5q136 0 192 -56z" />
    <glyph glyph-name="afii10056.001" horiz-adv-x="296" 
d="M148 723q81 0 81 -115v-502q0 -115 -81 -115t-81 115v502q0 115 81 115zM39 939q30 0 51.5 -21.5t21.5 -51.5t-21.5 -51t-51.5 -21t-51 21t-21 51t21 51.5t51 21.5zM256 939q30 0 51.5 -21.5t21.5 -51.5t-21.5 -51t-51.5 -21t-51 21t-21 51t21 51.5t51 21.5z" />
    <glyph glyph-name="afii10057.001" horiz-adv-x="458" 
d="M314 723q81 0 81 -115v-391q0 -117 -53 -177.5t-155 -60.5q-81 0 -133 35.5t-52 83.5q0 32 20.5 52.5t54.5 20.5q21 0 54 -18.5t49 -18.5q31 0 42 32.5t11 102.5v339q0 115 81 115z" />
    <glyph glyph-name="afii10098.001" horiz-adv-x="432" 
d="M152 532h125v54q0 104 65 104t65 -104v-80q0 -55 -15 -82t-58 -27h-123v-289q0 -115 -78 -115q-79 0 -79 115v286q0 71 24 104.5t74 33.5z" />
    </font>
</defs>
</svg>
