<svg width="27" height="33" fill="none" xmlns="http://www.w3.org/2000/svg"><path d="M13.276 28.02l7.298-7.099a9.956 9.956 0 0 0 2.824-5.14 9.784 9.784 0 0 0-.587-5.8 10.104 10.104 0 0 0-3.801-4.504 10.527 10.527 0 0 0-5.734-1.692c-2.04 0-4.036.59-5.733 1.692a10.104 10.104 0 0 0-3.801 4.505 9.784 9.784 0 0 0-.587 5.8 9.956 9.956 0 0 0 2.824 5.14l7.297 7.098zm0 4.055L3.894 22.95a12.8 12.8 0 0 1-3.631-6.608 12.58 12.58 0 0 1 .755-7.457 12.99 12.99 0 0 1 4.887-5.792A13.535 13.535 0 0 1 13.276.917c2.625 0 5.19.757 7.372 2.175a12.99 12.99 0 0 1 4.887 5.792 12.58 12.58 0 0 1 .755 7.457 12.8 12.8 0 0 1-3.631 6.608l-9.383 9.126zm0-15.384a2.99 2.99 0 0 0 2.085-.84 2.829 2.829 0 0 0 .864-2.028c0-.76-.31-1.49-.864-2.028a2.991 2.991 0 0 0-2.085-.84 2.99 2.99 0 0 0-2.085.84 2.829 2.829 0 0 0-.863 2.028c0 .76.31 1.49.863 2.028a2.99 2.99 0 0 0 2.085.84zm0 2.868a5.982 5.982 0 0 1-4.17-1.68 5.658 5.658 0 0 1-1.727-4.056c0-1.521.622-2.98 1.727-4.056a5.982 5.982 0 0 1 4.17-1.68c1.564 0 3.064.604 4.17 1.68a5.658 5.658 0 0 1 1.727 4.056c0 1.521-.62 2.98-1.727 4.056a5.982 5.982 0 0 1-4.17 1.68z" fill="url(#paint0_linear)"/><defs><linearGradient id="paint0_linear" x1="13.276" y1=".917" x2="13.276" y2="32.075" gradientUnits="userSpaceOnUse"><stop stop-color="#2F6EF6"/><stop offset="1" stop-color="#2F8FF6"/></linearGradient></defs></svg>