<svg width="59" height="59" fill="none" xmlns="http://www.w3.org/2000/svg"><path d="M29.5 0C18.045 0 8.726 9.465 8.726 21.1v16.8c0 11.635 9.32 21.1 20.774 21.1s20.774-9.436 20.774-21.034V21.099C50.274 9.465 40.954 0 29.5 0zm16.866 37.966c0 9.444-7.565 17.127-16.866 17.127-9.3 0-16.866-7.713-16.866-17.192V21.099c0-9.48 7.566-17.192 16.866-17.192S46.366 11.62 46.366 21.1v16.867z" fill="#fff" fill-opacity=".5"/><path d="M29.5 16.15c-1.08 0-1.954.875-1.954 1.954v6.838a1.954 1.954 0 1 0 3.908 0v-6.838A1.954 1.954 0 0 0 29.5 16.15z" fill="#fff" fill-opacity=".5"/></svg>