<svg width="34" height="27" fill="none" xmlns="http://www.w3.org/2000/svg"><path d="M33.72 25.444a1.455 1.455 0 0 1-.444 1.032c-.282.274-.663.43-1.06.432H4.895c-.4 0-.782-.155-1.064-.43a1.445 1.445 0 0 1-.44-1.034v-1.486h27.295V6.701L18.555 17.32 3.391 4.046V1.833c0-.39.16-.766.445-1.043A1.54 1.54 0 0 1 4.908.358h27.295c.402 0 .788.156 1.072.432.285.277.445.652.445 1.043v23.61zM7.082 3.308l11.473 10.045L30.03 3.308H7.082zM.36 18.058h12.13v2.95H.36v-2.95zm0-7.375h7.58v2.95H.359v-2.95z" fill="#2F8FF6"/></svg>