<svg width="31" height="31" fill="none" xmlns="http://www.w3.org/2000/svg"><path d="M15.355 30.317C6.98 30.317.191 23.713.191 15.567.191 7.42 6.981.817 15.355.817c8.375 0 15.164 6.603 15.164 14.75 0 8.146-6.789 14.75-15.164 14.75zm0-2.95c3.218 0 6.303-1.244 8.578-3.457 2.275-2.212 3.553-5.214 3.553-8.343 0-3.13-1.278-6.131-3.553-8.344-2.275-2.213-5.36-3.456-8.578-3.456-3.217 0-6.303 1.243-8.578 3.456-2.275 2.213-3.553 5.214-3.553 8.344 0 3.13 1.278 6.13 3.553 8.343s5.36 3.457 8.578 3.457zm1.517-11.8h6.065v2.95H13.84V8.192h3.033v7.375z" fill="url(#paint0_linear)"/><defs><linearGradient id="paint0_linear" x1="15.355" y1=".817" x2="15.355" y2="30.317" gradientUnits="userSpaceOnUse"><stop stop-color="#2F6EF6"/><stop offset="1" stop-color="#2F8FF6"/></linearGradient></defs></svg>