<svg width="132" height="135" fill="none" xmlns="http://www.w3.org/2000/svg"><g clip-path="url(#clip0)"><path d="M131.427 73.736c-1.181-12.192-6.491-23.686-14.952-32.365-7.23-7.416-16.08-12.182-25.392-14.301v-6.7c3.803-.97 6.63-4.502 6.63-8.7 0-4.943-3.92-8.964-8.74-8.964H70.465c-4.82 0-8.74 4.021-8.74 8.965 0 4.197 2.827 7.728 6.63 8.7v6.718c-9.283 2.128-18.104 6.887-25.313 14.282a53.131 53.131 0 0 0-4.365 5.081 2.507 2.507 0 0 0-.195-.01H20.164c-1.42 0-2.57 1.18-2.57 2.637 0 1.456 1.15 2.637 2.57 2.637H35.18a53.515 53.515 0 0 0-4.56 10.134H2.641c-1.42 0-2.571 1.18-2.571 2.637s1.151 2.637 2.57 2.637h26.525a54.924 54.924 0 0 0-1.276 10.135H16.523c-1.42 0-2.571 1.18-2.571 2.637 0 1.456 1.151 2.636 2.57 2.636h11.45a54.802 54.802 0 0 0 1.605 10.135H12.924c-1.42 0-2.57 1.18-2.57 2.637 0 1.456 1.15 2.637 2.57 2.637h18.293a53.128 53.128 0 0 0 11.825 18.756c8.468 8.687 19.685 14.135 31.583 15.341 1.698.171 3.398.257 5.095.257a51.108 51.108 0 0 0 28.337-8.591c1.19-.795 1.526-2.428.752-3.649-.775-1.22-2.368-1.565-3.557-.77-18.394 12.286-43.029 9.63-58.575-6.317-18.241-18.711-18.241-49.156 0-67.867 18.24-18.711 47.921-18.711 66.162 0 15.526 15.926 18.13 41.173 6.192 60.032-.773 1.221-.435 2.854.756 3.647 1.191.793 2.782.446 3.555-.775 6.379-10.077 9.25-22.247 8.085-34.27zM66.867 11.67c0-2.036 1.614-3.691 3.598-3.691h18.508c1.985 0 3.599 1.655 3.599 3.691 0 2.036-1.614 3.692-3.599 3.692H70.466c-1.985 0-3.6-1.657-3.6-3.692zm6.63 14.51v-5.545h12.445v5.536a51.077 51.077 0 0 0-12.445.01z" fill="#fff"/><path d="M114.658 112.194c-.678 0-1.339.282-1.817.773a2.677 2.677 0 0 0-.753 1.864c0 .693.272 1.374.753 1.864a2.543 2.543 0 0 0 1.817.773c.676 0 1.337-.28 1.818-.773.478-.49.753-1.171.753-1.864a2.69 2.69 0 0 0-.753-1.864 2.562 2.562 0 0 0-1.818-.773zm-34.9-74.064c-21.988 0-39.876 18.35-39.876 40.904 0 22.554 17.888 40.903 39.876 40.903 21.988 0 39.877-18.349 39.877-40.903 0-22.555-17.889-40.904-39.877-40.904zm0 76.534c-19.153 0-34.735-15.984-34.735-35.63 0-19.647 15.582-35.63 34.735-35.63 19.154 0 34.736 15.983 34.736 35.63 0 19.646-15.582 35.63-34.736 35.63z" fill="#fff"/><g filter="url(#filter0_d)"><path d="M96.019 58.626l-12.732 13.06a7.776 7.776 0 0 0-3.529-.846 7.775 7.775 0 0 0-3.528.845l-5.698-5.844a2.525 2.525 0 0 0-3.636 0 2.685 2.685 0 0 0 0 3.728l5.698 5.845a8.312 8.312 0 0 0-.823 3.62c0 4.517 3.583 8.193 7.987 8.193 4.405 0 7.988-3.676 7.988-8.194a8.315 8.315 0 0 0-.824-3.619L99.28 62.738l.374-.383a2.684 2.684 0 0 0 0-3.73 2.525 2.525 0 0 0-3.635 0zm-16.26 23.328c-1.57 0-2.847-1.31-2.847-2.92 0-1.61 1.277-2.92 2.846-2.92 1.57 0 2.847 1.31 2.847 2.92 0 1.61-1.277 2.92-2.847 2.92z" fill="#2F8FF6"/></g><path d="M107.242 76.43h-2.381c-1.42 0-2.571 1.18-2.571 2.636 0 1.456 1.151 2.637 2.571 2.637h2.381c1.42 0 2.571-1.18 2.571-2.637 0-1.456-1.151-2.637-2.571-2.637zm-52.586-.065h-2.382c-1.42 0-2.57 1.18-2.57 2.636 0 1.457 1.15 2.637 2.57 2.637h2.382c1.419 0 2.57-1.18 2.57-2.637 0-1.456-1.151-2.636-2.57-2.636zM79.79 55.921c1.419 0 2.57-1.18 2.57-2.637v-2.442c0-1.456-1.151-2.637-2.57-2.637-1.42 0-2.57 1.18-2.57 2.637v2.442c0 1.457 1.15 2.637 2.57 2.637zm-.063 46.225c-1.42 0-2.57 1.181-2.57 2.637v2.443c0 1.456 1.15 2.636 2.57 2.636s2.57-1.18 2.57-2.636v-2.443c0-1.456-1.15-2.637-2.57-2.637zm-77.086-9.48c-.676 0-1.339.282-1.817.773a2.686 2.686 0 0 0 0 3.728 2.56 2.56 0 0 0 1.817.773c.677 0 1.34-.282 1.818-.773a2.69 2.69 0 0 0 .753-1.864 2.69 2.69 0 0 0-.753-1.864 2.556 2.556 0 0 0-1.818-.773z" fill="#fff"/></g><defs><filter id="filter0_d" x="51.143" y="42.853" width="64.263" height="59.373" filterUnits="userSpaceOnUse" color-interpolation-filters="sRGB"><feFlood flood-opacity="0" result="BackgroundImageFix"/><feColorMatrix in="SourceAlpha" values="0 0 0 0 0 0 0 0 0 0 0 0 0 0 0 0 0 0 127 0"/><feOffset/><feGaussianBlur stdDeviation="7.5"/><feColorMatrix values="0 0 0 0 0.184314 0 0 0 0 0.560784 0 0 0 0 0.964706 0 0 0 1 0"/><feBlend in2="BackgroundImageFix" result="effect1_dropShadow"/><feBlend in="SourceGraphic" in2="effect1_dropShadow" result="shape"/></filter><clipPath id="clip0"><path fill="#fff" transform="translate(.071)" d="M0 0h131.61v135H0z"/></clipPath></defs></svg>