<svg width="132" height="135" fill="none" xmlns="http://www.w3.org/2000/svg"><g clip-path="url(#clip0)"><g filter="url(#filter0_d)"><path d="M124.666 122.143c-3.455 0-6.267 2.885-6.267 6.428 0 3.544 2.812 6.429 6.267 6.429 3.455 0 6.267-2.885 6.267-6.429 0-3.543-2.812-6.428-6.267-6.428zm0 8.571c-1.15 0-2.089-.96-2.089-2.143 0-1.182.939-2.142 2.089-2.142 1.151 0 2.089.96 2.089 2.142 0 1.183-.938 2.143-2.089 2.143z" fill="#2F8FF6"/></g><g filter="url(#filter1_d)"><path d="M13.947 6.429C13.947 2.885 11.134 0 7.679 0 4.225 0 1.412 2.885 1.412 6.429c0 3.543 2.813 6.428 6.267 6.428 3.455 0 6.268-2.885 6.268-6.428zm-8.357 0c0-1.18.939-2.143 2.09-2.143 1.15 0 2.088.962 2.088 2.143 0 1.18-.938 2.142-2.089 2.142-1.15 0-2.089-.962-2.089-2.142z" fill="#2F8FF6"/></g><path d="M113.639 84.919l-4.127-8.464a48.007 48.007 0 0 0 2.241-5.494l8.735-2.987v-24.52l-8.735-2.987a47.64 47.64 0 0 0-2.241-5.494l4.131-8.472L96.742 9.165l-8.26 4.236a45.317 45.317 0 0 0-5.356-2.299l-2.912-8.96H56.31l-2.912 8.96a45.317 45.317 0 0 0-5.356 2.3l-8.26-4.237-16.9 17.336 4.13 8.472a47.819 47.819 0 0 0-2.242 5.494l-8.734 2.988v24.517l8.734 2.986a47.583 47.583 0 0 0 2.219 5.45l-2.687 5.02H11.858v42.858H26.48v-6.429h15.847l6.267 6.429h11.31v2.143c0 4.727 3.748 8.571 8.357 8.571 4.608 0 8.356-3.844 8.356-8.571v-2.143h14.626c3.454 0 6.267-2.885 6.267-6.429a6.481 6.481 0 0 0-1.63-4.286 6.466 6.466 0 0 0 1.63-4.285A6.48 6.48 0 0 0 95.88 105a6.45 6.45 0 0 0 1.534-3.306l16.224-16.775zm-82.434-9.46a43.511 43.511 0 0 1-2.788-6.838l-.321-1.041-7.882-2.697v-18.34l7.882-2.694.319-1.043a43.18 43.18 0 0 1 2.787-6.836l.491-.97-3.729-7.652L40.606 14.38l7.459 3.825.947-.503a41.008 41.008 0 0 1 6.664-2.86l1.017-.328 2.63-8.086h17.88l2.626 8.084 1.017.328a40.926 40.926 0 0 1 6.664 2.86l.947.504 7.46-3.825 12.641 12.967-3.73 7.651.491.971a43.254 43.254 0 0 1 2.788 6.836l.319 1.043 7.884 2.698v18.34l-7.882 2.694-.321 1.042a43.494 43.494 0 0 1-2.788 6.837l-.491.971 3.734 7.657-12.345 12.76a6.614 6.614 0 0 0-.335-.418 6.469 6.469 0 0 0 1.629-4.285c0-3.343-2.51-6.065-5.691-6.37 8.862-7.285 14.045-18.218 14.045-30.059 0-21.267-16.87-38.571-37.603-38.571S30.659 34.447 30.659 55.714c0 11.698 5.185 22.702 13.986 30h-17.87l4.945-9.24-.515-1.016zm62.127 33.827c0 1.182-.938 2.143-2.088 2.143H74.528c-1.15 0-2.089-.961-2.089-2.143 0-1.183.938-2.143 2.089-2.143h16.715c1.15 0 2.088.96 2.088 2.143zM63.22 55.714h10.086l3.313-3.398v-9.459c2.304 0 4.178 1.922 4.178 4.286v9.827l-7.132 7.316H62.86l-7.132-7.316v-9.827c0-2.364 1.873-4.286 4.178-4.286v9.459l3.313 3.398zm.865 12.857h8.356v8.572h-8.356V68.57zm12.534-1.255l8.356-8.572V47.143c0-4.727-3.747-8.572-8.356-8.572H72.44v11.97l-.865.888h-6.626l-.865-.888v-11.97h-4.178c-4.609 0-8.356 3.845-8.356 8.572v11.601l8.356 8.572v9.827h-5.043l-.132.135c-7.132-4.721-11.538-12.815-11.538-21.564C43.193 41.534 54.438 30 68.262 30 82.085 30 93.33 41.535 93.33 55.714c0 8.686-4.23 16.64-11.31 21.429h-5.403v-9.827zm20.89-11.602c0-16.543-13.118-30-29.246-30s-29.247 13.457-29.247 30c0 9.898 4.8 19.114 12.674 24.684l-3.008 3.086c-8.675-6.446-13.844-16.761-13.844-27.77 0-18.904 14.996-34.285 33.425-34.285 18.429 0 33.425 15.381 33.425 34.285 0 10.59-4.667 20.362-12.635 26.84a6.422 6.422 0 0 0-2.08-3.814C93.63 73.07 97.51 64.72 97.51 55.714zM91.245 90c1.15 0 2.088.96 2.088 2.143 0 1.182-.938 2.143-2.088 2.143H74.528c-1.15 0-2.089-.96-2.089-2.143 0-1.183.938-2.143 2.089-2.143h16.715zM74.53 102.857c-1.15 0-2.089-.96-2.089-2.143 0-1.182.938-2.143 2.089-2.143h16.715c1.15 0 2.088.96 2.088 2.143 0 1.183-.938 2.143-2.088 2.143H74.528zM22.303 120h-6.267V85.714h6.267V120zm28.022 0l-6.267-6.429H26.481V90h21.755l8.357-8.572h26.292c1.15 0 2.09.961 2.09 2.143 0 1.183-.94 2.143-2.09 2.143H61.13l-8.969 9.2 2.955 3.03 4.79-4.914V120h-9.58zm17.937 10.714c-2.304 0-4.178-1.922-4.178-4.285V90h4.562a6.484 6.484 0 0 0-.384 2.143 6.48 6.48 0 0 0 1.629 4.285 6.469 6.469 0 0 0-1.63 4.286c0 1.652.63 3.145 1.63 4.286a6.469 6.469 0 0 0-1.63 4.286 6.48 6.48 0 0 0 1.63 4.285 6.471 6.471 0 0 0-1.63 4.286c0 2.79 1.753 5.147 4.179 6.034v2.538c0 2.363-1.874 4.285-4.178 4.285zM91.243 120H74.53c-1.15 0-2.089-.961-2.089-2.143s.938-2.143 2.089-2.143h16.715c1.15 0 2.088.961 2.088 2.143S92.394 120 91.245 120z" fill="#F6F8F9"/><path d="M5.59 19.286h4.18v4.285H5.59v-4.285zM5.59 30h4.18v4.286H5.59V30zm0 10.714h4.18V45H5.59v-4.286zM122.577 90h4.178v4.286h-4.178V90zm0 10.714h4.178V105h-4.178v-4.286zm0 10.715h4.178v4.285h-4.178v-4.285z" fill="#fff"/></g><defs><filter id="filter0_d" x="103.399" y="107.143" width="42.534" height="42.857" filterUnits="userSpaceOnUse" color-interpolation-filters="sRGB"><feFlood flood-opacity="0" result="BackgroundImageFix"/><feColorMatrix in="SourceAlpha" values="0 0 0 0 0 0 0 0 0 0 0 0 0 0 0 0 0 0 127 0"/><feOffset/><feGaussianBlur stdDeviation="7.5"/><feColorMatrix values="0 0 0 0 0.184314 0 0 0 0 0.560784 0 0 0 0 0.964706 0 0 0 1 0"/><feBlend in2="BackgroundImageFix" result="effect1_dropShadow"/><feBlend in="SourceGraphic" in2="effect1_dropShadow" result="shape"/></filter><filter id="filter1_d" x="-13.588" y="-15" width="42.534" height="42.857" filterUnits="userSpaceOnUse" color-interpolation-filters="sRGB"><feFlood flood-opacity="0" result="BackgroundImageFix"/><feColorMatrix in="SourceAlpha" values="0 0 0 0 0 0 0 0 0 0 0 0 0 0 0 0 0 0 127 0"/><feOffset/><feGaussianBlur stdDeviation="7.5"/><feColorMatrix values="0 0 0 0 0.184314 0 0 0 0 0.560784 0 0 0 0 0.964706 0 0 0 1 0"/><feBlend in2="BackgroundImageFix" result="effect1_dropShadow"/><feBlend in="SourceGraphic" in2="effect1_dropShadow" result="shape"/></filter><clipPath id="clip0"><path fill="#fff" transform="translate(.368)" d="M0 0h131.61v135H0z"/></clipPath></defs></svg>