<svg width="33" height="32" fill="none" xmlns="http://www.w3.org/2000/svg"><path d="M12.199 13.249a18.428 18.428 0 0 0 6.992 6.8l1.563-2.13a1.772 1.772 0 0 1 1.046-.677 1.813 1.813 0 0 1 1.244.168 20.628 20.628 0 0 0 8.108 2.347c.443.034.858.23 1.16.548.302.318.47.735.47 1.168v7.678c0 .426-.163.837-.457 1.153a1.787 1.787 0 0 1-1.133.56c-.937.094-1.882.14-2.834.14C13.214 31.004.936 19.062.936 4.331c0-.925.048-1.844.146-2.756A1.7 1.7 0 0 1 1.656.473 1.797 1.797 0 0 1 2.842.029h7.894c.445 0 .874.163 1.2.457.327.294.528.697.564 1.128a19.262 19.262 0 0 0 2.413 7.887c.207.369.269.8.172 1.21a1.72 1.72 0 0 1-.696 1.016L12.2 13.25zm-4.462-1.13l3.361-2.336a22.608 22.608 0 0 1-1.94-6.312H4.492c-.01.286-.015.573-.015.86-.002 12.83 10.69 23.232 23.881 23.232.296 0 .591-.005.885-.018v-4.537a24.222 24.222 0 0 1-6.49-1.888l-2.4 3.27a22.295 22.295 0 0 1-2.81-1.291l-.102-.057a21.92 21.92 0 0 1-8.319-8.091l-.058-.1a21.152 21.152 0 0 1-1.327-2.733z" fill="#2F6EF6"/></svg>