<svg width="133" height="135" fill="none" xmlns="http://www.w3.org/2000/svg"><g clip-path="url(#clip0)"><path d="M118.37 56.489v-3.051c0-4.653-3.69-8.438-8.226-8.438h-27.42V30.938c0-1.553-1.227-2.813-2.742-2.813h-8.225v-8.436c0-1.553-1.228-2.812-2.742-2.812H31.767l-4.682-4.803a2.693 2.693 0 0 0-3.878 0L7.558 28.124H3.21c-1.514 0-2.742 1.26-2.742 2.813v78.75c0 1.553 1.228 2.813 2.742 2.813h11.243a14.18 14.18 0 0 0 2.474 5.625h-5.491c-1.515 0-2.742 1.259-2.742 2.812s1.227 2.813 2.742 2.813h16.45l.02-.001c6.612-.01 12.141-4.844 13.414-11.249h49.908a14.178 14.178 0 0 0 2.473 5.625H88.21c-1.514 0-2.742 1.259-2.742 2.813 0 1.553 1.228 2.812 2.742 2.812h16.45l.021-.001c6.611-.01 12.141-4.844 13.413-11.249h11.242c1.515 0 2.742-1.259 2.742-2.812V73.125c0-8.347-5.939-15.292-13.708-16.636zM66.273 22.5v5.624h-23.54L37.25 22.5h29.023zm-41.127-4.462l3.544 3.636.004.004 6.284 6.446H15.314l9.832-10.085zm2.74 100.085c-4.535 0-8.225-3.784-8.225-8.437 0-4.652 3.69-8.438 8.226-8.438 4.535 0 8.225 3.786 8.225 8.438 0 4.653-3.69 8.437-8.225 8.437zm49.355-70.31v47.811H58.593c-1.514 0-2.742 1.26-2.742 2.813 0 1.553 1.228 2.812 2.742 2.812h18.648v5.625H41.32c-1.274-6.411-6.813-11.25-13.433-11.25s-12.16 4.839-13.434 11.25H5.952v-45h10.967c1.514 0 2.742-1.259 2.742-2.812 0-1.554-1.228-2.813-2.742-2.813H5.952v-5.625h32.902c1.514 0 2.742-1.259 2.742-2.812S40.368 45 38.854 45H5.952V33.75H77.24v14.063zm13.987 59.061h-8.503v-5.625H93.7a14.173 14.173 0 0 0-2.473 5.625zm21.658 2.822c-.005 4.648-3.693 8.427-8.225 8.427-4.536 0-8.226-3.784-8.226-8.437 0-4.645 3.679-8.425 8.205-8.437h.028c4.529.003 8.213 3.782 8.218 8.428v.019zm13.709-2.822h-8.501c-1.274-6.411-6.813-11.25-13.433-11.25H82.724v-45h27.42c1.512 0 2.742 1.262 2.742 2.813v2.813H93.693c-1.514 0-2.742 1.259-2.742 2.812v25.312c0 1.553 1.228 2.813 2.742 2.813h32.902v19.687zm-24.676-45v19.687h-5.484V61.875h5.484zm24.676 19.687h-19.192V61.875h8.225c6.047 0 10.967 5.046 10.967 11.25v8.437z" fill="#fff"/><g filter="url(#filter0_d)"><path d="M47.868 101.25h1.711c1.514 0 2.742-1.26 2.742-2.812 0-1.554-1.228-2.813-2.742-2.813h-1.711c-1.515 0-2.742 1.26-2.742 2.813 0 1.553 1.228 2.812 2.742 2.812z" fill="#2F8FF6"/></g><g filter="url(#filter1_d)"><path d="M47.868 50.626h1.711c1.514 0 2.742-1.26 2.742-2.813 0-1.553-1.228-2.813-2.742-2.813h-1.711c-1.515 0-2.742 1.26-2.742 2.813 0 1.553 1.228 2.813 2.742 2.813z" fill="#2F8FF6"/></g></g><defs><filter id="filter0_d" x="30.126" y="80.625" width="37.195" height="35.625" filterUnits="userSpaceOnUse" color-interpolation-filters="sRGB"><feFlood flood-opacity="0" result="BackgroundImageFix"/><feColorMatrix in="SourceAlpha" values="0 0 0 0 0 0 0 0 0 0 0 0 0 0 0 0 0 0 127 0"/><feOffset/><feGaussianBlur stdDeviation="7.5"/><feColorMatrix values="0 0 0 0 0.184314 0 0 0 0 0.560784 0 0 0 0 0.964706 0 0 0 1 0"/><feBlend in2="BackgroundImageFix" result="effect1_dropShadow"/><feBlend in="SourceGraphic" in2="effect1_dropShadow" result="shape"/></filter><filter id="filter1_d" x="30.126" y="30" width="37.195" height="35.625" filterUnits="userSpaceOnUse" color-interpolation-filters="sRGB"><feFlood flood-opacity="0" result="BackgroundImageFix"/><feColorMatrix in="SourceAlpha" values="0 0 0 0 0 0 0 0 0 0 0 0 0 0 0 0 0 0 127 0"/><feOffset/><feGaussianBlur stdDeviation="7.5"/><feColorMatrix values="0 0 0 0 0.184314 0 0 0 0 0.560784 0 0 0 0 0.964706 0 0 0 1 0"/><feBlend in2="BackgroundImageFix" result="effect1_dropShadow"/><feBlend in="SourceGraphic" in2="effect1_dropShadow" result="shape"/></filter><clipPath id="clip0"><path fill="#fff" transform="translate(.468)" d="M0 0h131.61v135H0z"/></clipPath></defs></svg>