<svg width="117" height="120" fill="none" xmlns="http://www.w3.org/2000/svg"><g clip-path="url(#clip0)"><path d="M70.31 109.298c-.964.247-1.948.466-2.924.65-2.552.487-4.24 3.005-3.767 5.625a4.82 4.82 0 0 0 1.916 3.063 4.596 4.596 0 0 0 3.564.8 58.12 58.12 0 0 0 3.484-.776c2.52-.643 4.056-3.262 3.427-5.846-.627-2.586-3.178-4.159-5.7-3.516zm34.779-64.66a4.8 4.8 0 0 0 1.752 2.424 4.603 4.603 0 0 0 4.191.639c2.465-.84 3.802-3.568 2.986-6.096a60.668 60.668 0 0 0-1.224-3.434c-.964-2.474-3.7-3.679-6.113-2.69-2.41.99-3.585 3.797-2.619 6.271.369.946.715 1.918 1.027 2.886zm-19.497 57.773a48.653 48.653 0 0 1-2.548 1.615c-2.25 1.332-3.021 4.282-1.724 6.59.353.627.822 1.14 1.362 1.532a4.61 4.61 0 0 0 5.062.235 58.664 58.664 0 0 0 3.033-1.922c2.166-1.468 2.763-4.461 1.33-6.684-1.431-2.224-4.348-2.835-6.515-1.366zm31.35-44.299c-.102-2.663-2.289-4.735-4.885-4.631-2.593.105-4.615 2.348-4.513 5.01a50.6 50.6 0 0 1 .026 3.067 4.855 4.855 0 0 0 1.997 4.052 4.61 4.61 0 0 0 2.601.878c2.596.059 4.747-2.053 4.805-4.717a61.158 61.158 0 0 0-.031-3.66zM104.321 89.72c-2.081-1.602-5.026-1.167-6.585.965a50.18 50.18 0 0 1-1.87 2.398c-1.682 2.028-1.444 5.073.532 6.8.113.098.227.188.345.273 1.965 1.421 4.696 1.094 6.285-.818a59.9 59.9 0 0 0 2.232-2.864c1.559-2.131 1.137-5.154-.939-6.754zm6.913-17.438c-2.478-.797-5.117.618-5.894 3.16a52.289 52.289 0 0 1-.982 2.903c-.781 2.104-.033 4.419 1.682 5.66.315.226.661.418 1.038.564 2.426.95 5.144-.299 6.068-2.789a63.012 63.012 0 0 0 1.169-3.452c.776-2.543-.603-5.249-3.081-6.046zm-61.442 37.71a47.684 47.684 0 0 1-12.063-3.932c-.045-.025-.085-.052-.133-.074a51.53 51.53 0 0 1-2.687-1.397 50.114 50.114 0 0 1-4.678-2.999C8.107 85.604 2.787 54.137 18.372 31.445a49.506 49.506 0 0 1 12.062-12.31l.169-.12C46.715 7.628 68.592 6.86 85.7 18.56l-3.675 5.446c-1.021 1.516-.393 2.62 1.395 2.455l15.96-1.465c1.791-.165 2.862-1.754 2.381-3.528L97.475 5.63c-.48-1.775-1.709-1.988-2.731-.473l-3.683 5.459C78.506 1.97 63.448-1.326 48.502 1.332c-1.505.268-2.99.595-4.453.975l-.03.006c-.056.014-.113.033-.169.049-12.888 3.394-24.133 11.105-32.156 22.106-.068.082-.138.163-.202.252a57.03 57.03 0 0 0-2.032 3.008c-.05.077-.088.154-.132.232C2.706 38.484-.487 50.652.06 63.04c.002.04 0 .081 0 .123.053 1.21.147 2.437.274 3.645.007.077.024.151.036.23.132 1.214.296 2.43.503 3.648 2.098 12.417 7.809 23.591 16.366 32.285l.06.064c.007.008.015.012.022.02a59.612 59.612 0 0 0 7.492 6.422c7.047 5.093 14.893 8.46 23.32 10.011 2.556.471 4.998-1.275 5.457-3.896.458-2.623-1.242-5.13-3.798-5.6z" fill="#F6F8F9"/><g filter="url(#filter0_d)"><path d="M55.608 21.461c-2.104 0-3.807 1.75-3.807 3.903V64.25l34.67 18.385a3.706 3.706 0 0 0 1.744.435 3.795 3.795 0 0 0 3.384-2.11c.964-1.916.234-4.27-1.633-5.259L59.41 59.497V25.364c0-2.154-1.702-3.903-3.802-3.903z" fill="#2F8FF6"/></g></g><defs><filter id="filter0_d" x="31.801" y="1.461" width="80.223" height="101.609" filterUnits="userSpaceOnUse" color-interpolation-filters="sRGB"><feFlood flood-opacity="0" result="BackgroundImageFix"/><feColorMatrix in="SourceAlpha" values="0 0 0 0 0 0 0 0 0 0 0 0 0 0 0 0 0 0 127 0"/><feOffset/><feGaussianBlur stdDeviation="10"/><feColorMatrix values="0 0 0 0 0.184314 0 0 0 0 0.560784 0 0 0 0 0.964706 0 0 0 1 0"/><feBlend in2="BackgroundImageFix" result="effect1_dropShadow"/><feBlend in="SourceGraphic" in2="effect1_dropShadow" result="shape"/></filter><clipPath id="clip0"><path fill="#fff" d="M0 0h116.987v120H0z"/></clipPath></defs></svg>