<svg width="135" height="135" fill="none" xmlns="http://www.w3.org/2000/svg"><g clip-path="url(#clip0)"><path d="M134.08 48.644a66.788 66.788 0 0 0-1.211-3.621c-4.511-12.32-12.637-23.315-23.171-31.256C97.75 4.76 83.505 0 68.502 0 51.504 0 35.174 6.33 22.523 17.823a1.976 1.976 0 1 0 2.66 2.927C37.105 9.92 52.488 3.955 68.503 3.955c14.135 0 27.558 4.486 38.815 12.97 9.893 7.457 17.533 17.773 21.793 29.332.397 2.563.068 4.462-1.012 5.798-1.393 1.726-4.163 2.7-8.231 2.894l-.085.006c-.605.03-1.21.073-1.814.12a20.591 20.591 0 0 0-.842-3.765 20.74 20.74 0 0 0-13.864-13.488L92.158 34.55 85.614 25a20.738 20.738 0 0 0-17.11-9.017A20.738 20.738 0 0 0 51.391 25l-6.544 9.55-11.106 3.275A20.735 20.735 0 0 0 19.877 51.31a20.735 20.735 0 0 0 3.289 19.06l7.06 9.175-.319 11.574c-.155 5.649 1.924 10.985 5.857 15.025 3.892 4.001 9.31 6.295 14.867 6.295h.002c1.762 0 3.51-.225 5.214-.669a68.475 68.475 0 0 0-.892 8.016c-.003.027-.004.054-.006.082-.194 4.068-1.168 6.838-2.893 8.231-1.337 1.08-3.236 1.409-5.8 1.012-11.558-4.26-21.872-11.9-29.33-21.793-8.485-11.257-12.97-24.68-12.97-38.816 0-15.017 5.324-29.667 14.992-41.252a1.977 1.977 0 1 0-3.035-2.534C5.651 37.011 0 52.56 0 68.502c0 15.003 4.76 29.248 13.767 41.196 7.94 10.534 18.937 18.66 31.256 23.171l.098.035a67.13 67.13 0 0 0 3.523 1.176c2.045.619 4.134.92 6.205.92a21.457 21.457 0 0 0 15.18-6.305l10.308-10.306a1.98 1.98 0 0 0 0-2.798 1.98 1.98 0 0 0-2.798 0l-10.306 10.307a17.51 17.51 0 0 1-12.538 5.144c2.531-2.145 3.946-5.81 4.202-10.911 0-.022.003-.046.004-.07a64.408 64.408 0 0 1 18.82-42.34 64.406 64.406 0 0 1 42.34-18.82l.075-.005c5.098-.256 8.762-1.671 10.906-4.2a17.51 17.51 0 0 1-5.145 12.537L84.09 109.042a1.976 1.976 0 1 0 2.797 2.796l41.808-41.808a21.43 21.43 0 0 0 5.385-21.386zm-31.725 9.511a68.414 68.414 0 0 0-27.432 16.768 68.519 68.519 0 0 0-12.944 18.015l-9.669 3.438a4.906 4.906 0 0 1-4.59-.662 4.91 4.91 0 0 1-2.05-4.162l.385-14.004a8.96 8.96 0 0 0-1.849-5.691l-8.543-11.102a4.91 4.91 0 0 1-.788-4.572 4.907 4.907 0 0 1 3.325-3.234l13.436-3.962a8.96 8.96 0 0 0 4.842-3.517l7.92-11.556A4.91 4.91 0 0 1 68.5 31.75c1.667 0 3.162.789 4.103 2.163l7.921 11.556a8.958 8.958 0 0 0 4.84 3.517l13.439 3.962a4.916 4.916 0 0 1 2.989 2.44 5.07 5.07 0 0 1 .562 2.766zm3.948-1.139a9 9 0 0 0-1.009-3.468 8.844 8.844 0 0 0-5.372-4.394l-13.438-3.961a4.98 4.98 0 0 1-2.696-1.96l-7.92-11.555a8.927 8.927 0 0 0-14.732 0l-7.92 11.556a4.986 4.986 0 0 1-2.697 1.959L37.08 49.154a8.927 8.927 0 0 0-5.968 5.807 8.924 8.924 0 0 0 1.416 8.205l8.542 11.103a4.989 4.989 0 0 1 1.031 3.17l-.385 14.005a8.925 8.925 0 0 0 3.677 7.469 8.925 8.925 0 0 0 8.242 1.19l6.114-2.175a68.23 68.23 0 0 0-2.995 9.406l-.487.174a16.775 16.775 0 0 1-5.635.976h-.002c-4.495 0-8.881-1.858-12.033-5.098-3.18-3.269-4.863-7.587-4.737-12.159l.337-12.276a1.984 1.984 0 0 0-.409-1.26L26.3 67.959a16.78 16.78 0 0 1-2.661-15.425 16.782 16.782 0 0 1 11.22-10.916l11.779-3.472a1.973 1.973 0 0 0 1.072-.78l6.943-10.13a16.781 16.781 0 0 1 13.85-7.297 16.78 16.78 0 0 1 13.847 7.297l6.943 10.13c.258.376.636.651 1.072.78l11.78 3.472A16.784 16.784 0 0 1 114.038 55.5a68.198 68.198 0 0 0-7.735 1.515z" fill="#F6F8F9" stroke="#F6F8F9" stroke-width="2"/></g><defs><clipPath id="clip0"><path fill="#fff" d="M0 0h135v135H0z"/></clipPath></defs></svg>